<svg width="79" height="75" viewBox="0 0 79 75" fill="none" xmlns="http://www.w3.org/2000/svg">
<g filter="url(#filter0_ii_855_2370)">
<rect x="2.18457" y="2" width="74.6311" height="71" rx="35.5" fill="#ED950D" stroke="#C98239" stroke-width="4"/>
<path d="M13.9729 19.1211C17.974 8.72061 23.8409 10.7025 26.8623 12.6794C28.0102 13.4304 28.0106 15.1782 27.0254 16.2992V16.2992C26.5358 16.8563 25.8721 17.173 25.1944 17.173L24.4463 17.173C23.6612 17.173 22.8791 17.4228 22.1911 17.8933L21.0759 18.656C19.6971 19.5989 18.5564 20.9352 17.7798 22.517L15.1034 27.9687C14.9709 28.2387 14.856 28.5183 14.7599 28.8051V28.8051C13.4341 32.7591 10.5065 32.9133 11.1767 28.7971C11.5785 26.33 12.418 23.1626 13.9729 19.1211Z" fill="white"/>
<path d="M39.0547 47.8867C39.4453 47.8867 39.7617 47.7617 40.0039 47.5117C40.2539 47.2617 40.3789 46.9492 40.3789 46.5742V28.5977C40.3789 28.2148 40.2539 27.8906 40.0039 27.625C39.7539 27.3516 39.4297 27.2148 39.0312 27.2148C38.7578 27.2148 38.5117 27.2812 38.293 27.4141C38.082 27.5391 37.8242 27.7422 37.5195 28.0234L32.5273 32.7109C32.4492 32.7812 32.3516 32.8164 32.2344 32.8164H28.8711C28.082 32.8164 27.4766 33.0352 27.0547 33.4727C26.6328 33.9023 26.4219 34.5391 26.4219 35.3828V39.7422C26.4219 40.5938 26.6328 41.2344 27.0547 41.6641C27.4766 42.0938 28.082 42.3086 28.8711 42.3086H32.2344C32.3516 42.3086 32.4492 42.3438 32.5273 42.4141L37.5195 47.1484C37.7852 47.4062 38.0391 47.5938 38.2812 47.7109C38.5234 47.8281 38.7812 47.8867 39.0547 47.8867ZM44.5625 42.5312C44.7656 42.6641 44.9883 42.7109 45.2305 42.6719C45.4727 42.625 45.6719 42.4883 45.8281 42.2617C46.2812 41.668 46.6328 40.957 46.8828 40.1289C47.1406 39.3008 47.2695 38.4375 47.2695 37.5391C47.2695 36.6406 47.1406 35.7773 46.8828 34.9492C46.6328 34.1211 46.2812 33.4102 45.8281 32.8164C45.6719 32.5898 45.4727 32.4531 45.2305 32.4062C44.9883 32.3594 44.7656 32.4062 44.5625 32.5469C44.3281 32.7109 44.1914 32.9258 44.1523 33.1914C44.1211 33.4492 44.1992 33.6992 44.3867 33.9414C44.7305 34.4102 44.9922 34.957 45.1719 35.582C45.3594 36.207 45.4531 36.8594 45.4531 37.5391C45.4531 38.2188 45.3594 38.8711 45.1719 39.4961C44.9844 40.1133 44.7227 40.6602 44.3867 41.1367C44.207 41.3867 44.1328 41.6406 44.1641 41.8984C44.1953 42.1562 44.3281 42.3672 44.5625 42.5312ZM48.9102 45.5898C49.1289 45.7305 49.3594 45.7812 49.6016 45.7422C49.8438 45.6953 50.043 45.5586 50.1992 45.332C50.9492 44.3008 51.5312 43.1055 51.9453 41.7461C52.3672 40.3867 52.5781 38.9844 52.5781 37.5391C52.5781 36.0938 52.3711 34.6875 51.957 33.3203C51.543 31.9531 50.957 30.7617 50.1992 29.7461C50.043 29.5195 49.8438 29.3828 49.6016 29.3359C49.3594 29.2891 49.1289 29.3398 48.9102 29.4883C48.6992 29.6367 48.5742 29.8359 48.5352 30.0859C48.5039 30.3281 48.5742 30.5703 48.7461 30.8125C49.3867 31.7188 49.8828 32.7539 50.2344 33.918C50.5859 35.082 50.7617 36.2891 50.7617 37.5391C50.7617 38.7891 50.582 39.9961 50.2227 41.1602C49.8711 42.3164 49.3789 43.3516 48.7461 44.2656C48.582 44.5078 48.5156 44.7539 48.5469 45.0039C48.5781 45.2461 48.6992 45.4414 48.9102 45.5898Z" fill="white"/>
<path d="M40.0039 47.5117L39.2968 46.8046L39.2912 46.8102L39.2857 46.8159L40.0039 47.5117ZM40.0039 27.625L39.2659 28.2998L39.2708 28.3051L39.2757 28.3104L40.0039 27.625ZM38.293 27.4141L38.8028 28.2744L38.8119 28.2689L38.293 27.4141ZM37.5195 28.0234L36.8412 27.2886L36.835 27.2944L37.5195 28.0234ZM32.5273 32.7109L33.1963 33.4542L33.2042 33.4472L33.2119 33.4399L32.5273 32.7109ZM27.0547 33.4727L27.7683 34.1733L27.7745 34.1668L27.0547 33.4727ZM32.5273 42.4141L33.2155 41.6885L33.206 41.6795L33.1963 41.6708L32.5273 42.4141ZM37.5195 47.1484L38.2161 46.4308L38.2077 46.4228L37.5195 47.1484ZM44.5625 42.5312L43.989 43.3505L44.002 43.3596L44.0153 43.3682L44.5625 42.5312ZM45.2305 42.6719L45.3897 43.6591L45.4051 43.6566L45.4205 43.6537L45.2305 42.6719ZM45.8281 42.2617L45.0332 41.655L45.0186 41.6742L45.0049 41.694L45.8281 42.2617ZM46.8828 40.1289L45.928 39.8316L45.9255 39.8399L46.8828 40.1289ZM46.8828 34.9492L45.9254 35.2382L45.928 35.2465L46.8828 34.9492ZM45.8281 32.8164L45.0049 33.3841L45.0186 33.4039L45.0332 33.4231L45.8281 32.8164ZM44.5625 32.5469L43.9933 31.7247L43.989 31.7276L44.5625 32.5469ZM44.1523 33.1914L43.163 33.0459L43.1611 33.0585L43.1596 33.0711L44.1523 33.1914ZM44.3867 33.9414L45.1931 33.35L45.1854 33.3395L45.1774 33.3292L44.3867 33.9414ZM45.1719 35.582L44.2107 35.8584L44.214 35.8694L45.1719 35.582ZM45.1719 39.4961L46.1287 39.7868L46.1297 39.7834L45.1719 39.4961ZM44.3867 41.1367L45.1988 41.7204L45.2041 41.7129L44.3867 41.1367ZM48.9102 45.5898L48.3347 46.4077L48.3518 46.4197L48.3694 46.431L48.9102 45.5898ZM49.6016 45.7422L49.7608 46.7294L49.7762 46.7269L49.7916 46.724L49.6016 45.7422ZM50.1992 45.332L49.3905 44.7439L49.3831 44.754L49.376 44.7643L50.1992 45.332ZM51.9453 41.7461L50.9902 41.4497L50.9887 41.4547L51.9453 41.7461ZM50.1992 29.7461L49.376 30.3138L49.3866 30.3292L49.3977 30.3441L50.1992 29.7461ZM48.9102 29.4883L48.3487 28.6608L48.3416 28.6656L48.3347 28.6705L48.9102 29.4883ZM48.5352 30.0859L47.5471 29.9316L47.5451 29.9447L47.5434 29.958L48.5352 30.0859ZM48.7461 30.8125L49.5627 30.2353L49.5616 30.2338L48.7461 30.8125ZM50.2227 41.1602L49.2671 40.8652L49.2659 40.8693L50.2227 41.1602ZM48.7461 44.2656L47.9239 43.6964L47.9182 43.7048L48.7461 44.2656ZM48.5469 45.0039L47.5546 45.1279L47.5551 45.1319L48.5469 45.0039ZM39.0547 48.8867C39.6797 48.8867 40.2677 48.6766 40.7221 48.2075L39.2857 46.8159C39.2557 46.8468 39.2109 46.8867 39.0547 46.8867V48.8867ZM40.711 48.2188C41.1608 47.769 41.3789 47.1966 41.3789 46.5742H39.3789C39.3789 46.7019 39.347 46.7544 39.2968 46.8046L40.711 48.2188ZM41.3789 46.5742V28.5977H39.3789V46.5742H41.3789ZM41.3789 28.5977C41.3789 27.974 41.166 27.4006 40.7321 26.9396L39.2757 28.3104C39.3418 28.3806 39.3789 28.4557 39.3789 28.5977H41.3789ZM40.7419 26.9502C40.287 26.4527 39.6867 26.2148 39.0312 26.2148V28.2148C39.1727 28.2148 39.2208 28.2504 39.2659 28.2998L40.7419 26.9502ZM39.0312 26.2148C38.5878 26.2148 38.16 26.3249 37.774 26.5593L38.8119 28.2689C38.8635 28.2376 38.9278 28.2148 39.0312 28.2148V26.2148ZM37.7832 26.5538C37.4846 26.7307 37.1674 26.9876 36.8413 27.2886L38.1978 28.7582C38.481 28.4968 38.6795 28.3474 38.8028 28.2744L37.7832 26.5538ZM36.835 27.2944L31.8428 31.9819L33.2119 33.4399L38.204 28.7524L36.835 27.2944ZM31.8584 31.9676C31.9143 31.9173 31.9822 31.876 32.0568 31.8492C32.1297 31.8229 32.1922 31.8164 32.2344 31.8164V33.8164C32.568 33.8164 32.913 33.7092 33.1963 33.4542L31.8584 31.9676ZM32.2344 31.8164H28.8711V33.8164H32.2344V31.8164ZM28.8711 31.8164C27.8955 31.8164 26.997 32.0919 26.3348 32.7785L27.7745 34.1668C27.9562 33.9784 28.2686 33.8164 28.8711 33.8164V31.8164ZM26.3411 32.7721C25.6726 33.4529 25.4219 34.3834 25.4219 35.3828H27.4219C27.4219 34.6947 27.593 34.3517 27.7683 34.1732L26.3411 32.7721ZM25.4219 35.3828V39.7422H27.4219V35.3828H25.4219ZM25.4219 39.7422C25.4219 40.7464 25.6711 41.6822 26.3411 42.3647L27.7683 40.9635C27.5945 40.7865 27.4219 40.4411 27.4219 39.7422H25.4219ZM26.3411 42.3647C27.0042 43.04 27.9005 43.3086 28.8711 43.3086V41.3086C28.2636 41.3086 27.9489 41.1475 27.7683 40.9635L26.3411 42.3647ZM28.8711 43.3086H32.2344V41.3086H28.8711V43.3086ZM32.2344 43.3086C32.1922 43.3086 32.1297 43.3021 32.0568 43.2758C31.9822 43.249 31.9143 43.2077 31.8584 43.1574L33.1963 41.6708C32.913 41.4158 32.568 41.3086 32.2344 41.3086V43.3086ZM31.8392 43.1397L36.8314 47.874L38.2077 46.4228L33.2155 41.6885L31.8392 43.1397ZM36.8231 47.866C37.1387 48.1723 37.4788 48.4336 37.8457 48.6111L38.7168 46.8108C38.5993 46.7539 38.4316 46.6402 38.216 46.4309L36.8231 47.866ZM37.8457 48.6111C38.2259 48.7951 38.6329 48.8867 39.0547 48.8867V46.8867C38.9296 46.8867 38.8209 46.8612 38.7168 46.8108L37.8457 48.6111ZM44.0153 43.3682C44.4294 43.639 44.9045 43.7374 45.3897 43.6591L45.0712 41.6846C45.0657 41.6855 45.0653 41.6851 45.0693 41.6852C45.0734 41.6853 45.0799 41.6858 45.0878 41.6875C45.0958 41.6891 45.1025 41.6914 45.1073 41.6934C45.112 41.6954 45.1129 41.6963 45.1097 41.6943L44.0153 43.3682ZM45.4205 43.6537C45.9505 43.5511 46.3652 43.2444 46.6513 42.8295L45.0049 41.694C44.9955 41.7076 44.9896 41.7139 44.9881 41.7154C44.9868 41.7168 44.9892 41.7141 44.9957 41.7097C45.0023 41.7051 45.0106 41.7005 45.02 41.6966C45.0293 41.6927 45.0366 41.6908 45.0404 41.6901L45.4205 43.6537ZM46.6231 42.8684C47.1595 42.1656 47.5609 41.3429 47.8401 40.4179L45.9255 39.8399C45.7047 40.5711 45.403 41.1704 45.0332 41.655L46.6231 42.8684ZM47.8376 40.4262C48.1265 39.4984 48.2695 38.5346 48.2695 37.5391H46.2695C46.2695 38.3404 46.1548 39.1032 45.928 39.8317L47.8376 40.4262ZM48.2695 37.5391C48.2695 36.5435 48.1265 35.5798 47.8376 34.652L45.928 35.2465C46.1548 35.9749 46.2695 36.7378 46.2695 37.5391H48.2695ZM47.8401 34.6602C47.5609 33.7352 47.1595 32.9126 46.6231 32.2097L45.0332 33.4231C45.403 33.9077 45.7047 34.507 45.9255 35.2382L47.8401 34.6602ZM46.6513 32.2487C46.3652 31.8337 45.9505 31.5271 45.4205 31.4245L45.0404 33.388C45.0366 33.3873 45.0293 33.3854 45.02 33.3816C45.0106 33.3777 45.0023 33.373 44.9957 33.3685C44.9892 33.364 44.9868 33.3614 44.9881 33.3627C44.9896 33.3642 44.9955 33.3706 45.0049 33.3841L46.6513 32.2487ZM45.4205 31.4245C44.9136 31.3264 44.4173 31.4311 43.9933 31.7247L45.1317 33.3691C45.1333 33.368 45.1176 33.3785 45.0878 33.3848C45.0581 33.3911 45.0391 33.3878 45.0404 33.388L45.4205 31.4245ZM43.989 31.7276C43.5458 32.0379 43.2449 32.4887 43.163 33.0459L45.1417 33.3369C45.142 33.3347 45.1417 33.3381 45.1391 33.3453C45.1364 33.3526 45.1325 33.3606 45.1278 33.3679C45.1256 33.3714 45.1236 33.3742 45.122 33.3762C45.1204 33.3782 45.1195 33.3792 45.1195 33.3791C45.1195 33.3791 45.1206 33.378 45.1232 33.3758C45.1258 33.3736 45.13 33.3703 45.136 33.3661L43.989 31.7276ZM43.1596 33.0711C43.0911 33.6365 43.2784 34.1434 43.596 34.5536L45.1774 33.3292C45.1444 33.2866 45.1401 33.268 45.142 33.274C45.1429 33.2768 45.1444 33.2829 45.1452 33.2914C45.146 33.2999 45.1456 33.3071 45.1451 33.3117L43.1596 33.0711ZM43.5803 34.5328C43.8466 34.8958 44.0599 35.3333 44.2108 35.8583L46.1329 35.3057C45.9245 34.5808 45.6144 33.9245 45.1931 33.35L43.5803 34.5328ZM44.214 35.8694C44.3724 36.3973 44.4531 36.9526 44.4531 37.5391H46.4531C46.4531 36.7661 46.3463 36.0167 46.1297 35.2947L44.214 35.8694ZM44.4531 37.5391C44.4531 38.1255 44.3724 38.6808 44.214 39.2087L46.1297 39.7834C46.3463 39.0614 46.4531 38.312 46.4531 37.5391H44.4531ZM44.2151 39.2054C44.0553 39.7314 43.8377 40.1799 43.5694 40.5606L45.2041 41.7129C45.6076 41.1405 45.9135 40.4952 46.1287 39.7868L44.2151 39.2054ZM43.5747 40.5531C43.2774 40.9667 43.1044 41.4669 43.1713 42.0188L45.1568 41.7781C45.1571 41.7806 45.1573 41.7847 45.1569 41.7895C45.1565 41.7942 45.1558 41.7964 45.1561 41.7952C45.1567 41.7931 45.1644 41.7682 45.1987 41.7204L43.5747 40.5531ZM43.1713 42.0188C43.2405 42.589 43.5484 43.0421 43.989 43.3505L45.136 41.712C45.1119 41.6952 45.1191 41.6946 45.1333 41.7172C45.14 41.7278 45.146 41.74 45.1504 41.7527C45.1548 41.7651 45.1563 41.7743 45.1568 41.7781L43.1713 42.0188ZM48.3694 46.431C48.7819 46.6962 49.2597 46.8102 49.7608 46.7294L49.4423 44.7549C49.4403 44.7553 49.4421 44.7548 49.4469 44.7549C49.4518 44.7551 49.4572 44.7557 49.4622 44.7568C49.4672 44.7579 49.4695 44.7589 49.4684 44.7585C49.4672 44.758 49.4614 44.7554 49.4509 44.7487L48.3694 46.431ZM49.7916 46.724C50.3216 46.6214 50.7362 46.3147 51.0224 45.8998L49.376 44.7643C49.3666 44.7779 49.3607 44.7842 49.3592 44.7857C49.3579 44.7871 49.3603 44.7844 49.3668 44.78C49.3734 44.7755 49.3817 44.7708 49.3911 44.7669C49.4004 44.763 49.4077 44.7611 49.4115 44.7604L49.7916 46.724ZM51.008 45.9202C51.8305 44.7893 52.4591 43.4912 52.9019 42.0375L50.9887 41.4547C50.6034 42.7197 50.068 43.8123 49.3905 44.7439L51.008 45.9202ZM52.9004 42.0425C53.3525 40.5856 53.5781 39.0833 53.5781 37.5391H51.5781C51.5781 38.8855 51.3819 40.1878 50.9902 41.4497L52.9004 42.0425ZM53.5781 37.5391C53.5781 35.9967 53.357 34.4927 52.9141 33.0305L51 33.6102C51.3852 34.8823 51.5781 36.1908 51.5781 37.5391H53.5781ZM52.9141 33.0305C52.4707 31.5663 51.8361 30.2677 51.0007 29.1481L49.3977 30.3441C50.078 31.2558 50.6153 32.34 51 33.6102L52.9141 33.0305ZM51.0224 29.1784C50.7362 28.7634 50.3216 28.4567 49.7916 28.3542L49.4115 30.3177C49.4077 30.317 49.4004 30.3151 49.3911 30.3113C49.3817 30.3074 49.3734 30.3027 49.3668 30.2981C49.3603 30.2937 49.3579 30.291 49.3592 30.2924C49.3607 30.2939 49.3666 30.3002 49.376 30.3138L51.0224 29.1784ZM49.7916 28.3542C49.2683 28.2529 48.77 28.3749 48.3487 28.6608L49.4717 30.3158C49.4887 30.3042 49.4849 30.3105 49.4622 30.3154C49.4518 30.3177 49.4408 30.319 49.4304 30.3191C49.4201 30.3191 49.4135 30.3181 49.4115 30.3177L49.7916 28.3542ZM48.3347 28.6705C47.9068 28.9716 47.629 29.4078 47.5471 29.9316L49.5232 30.2403C49.5235 30.2384 49.523 30.2426 49.5199 30.251C49.5167 30.2596 49.5119 30.2699 49.5053 30.2805C49.4986 30.2911 49.4921 30.299 49.4872 30.304C49.4825 30.3089 49.4811 30.3093 49.4856 30.3061L48.3347 28.6705ZM47.5434 29.958C47.4733 30.501 47.6463 30.9907 47.9306 31.3912L49.5616 30.2338C49.5292 30.188 49.5238 30.167 49.5248 30.1704C49.5253 30.1722 49.5268 30.178 49.5275 30.1872C49.5283 30.1964 49.528 30.2057 49.5269 30.2139L47.5434 29.958ZM47.9295 31.3897C48.5024 32.2001 48.9537 33.1362 49.2771 34.2071L51.1917 33.6289C50.812 32.3716 50.271 31.2374 49.5627 30.2353L47.9295 31.3897ZM49.2771 34.2071C49.5995 35.2748 49.7617 36.3842 49.7617 37.5391H51.7617C51.7617 36.1939 51.5723 34.8893 51.1917 33.6289L49.2771 34.2071ZM49.7617 37.5391C49.7617 38.6917 49.5963 39.7991 49.2672 40.8652L51.1782 41.4551C51.5678 40.193 51.7617 38.8864 51.7617 37.5391H49.7617ZM49.2659 40.8693C48.9419 41.9349 48.4928 42.8747 47.9239 43.6964L49.5683 44.8348C50.265 43.8285 50.8003 42.6979 51.1794 41.4511L49.2659 40.8693ZM47.9182 43.7048C47.6413 44.1135 47.4885 44.5991 47.5546 45.1279L49.5392 44.8799C49.5393 44.8811 49.5395 44.8841 49.5392 44.8878C49.539 44.8916 49.5384 44.8933 49.5387 44.8924C49.5391 44.8909 49.5451 44.8691 49.574 44.8265L47.9182 43.7048ZM47.5551 45.1319C47.6245 45.6694 47.9089 46.108 48.3347 46.4077L49.4856 44.772C49.4768 44.7658 49.4924 44.7751 49.511 44.8051C49.5304 44.8363 49.5372 44.8645 49.5387 44.8759L47.5551 45.1319Z" fill="white"/>
</g>
<defs>
<filter id="filter0_ii_855_2370" x="0" y="0" width="85" height="81" filterUnits="userSpaceOnUse" color-interpolation-filters="sRGB">
<feFlood flood-opacity="0" result="BackgroundImageFix"/>
<feBlend mode="normal" in="SourceGraphic" in2="BackgroundImageFix" result="shape"/>
<feColorMatrix in="SourceAlpha" type="matrix" values="0 0 0 0 0 0 0 0 0 0 0 0 0 0 0 0 0 0 127 0" result="hardAlpha"/>
<feOffset dx="6" dy="6"/>
<feGaussianBlur stdDeviation="3"/>
<feComposite in2="hardAlpha" operator="arithmetic" k2="-1" k3="1"/>
<feColorMatrix type="matrix" values="0 0 0 0 0.705882 0 0 0 0 0.427451 0 0 0 0 0 0 0 0 0.5 0"/>
<feBlend mode="normal" in2="shape" result="effect1_innerShadow_855_2370"/>
<feColorMatrix in="SourceAlpha" type="matrix" values="0 0 0 0 0 0 0 0 0 0 0 0 0 0 0 0 0 0 127 0" result="hardAlpha"/>
<feOffset dx="-6" dy="-6"/>
<feComposite in2="hardAlpha" operator="arithmetic" k2="-1" k3="1"/>
<feColorMatrix type="matrix" values="0 0 0 0 0.705882 0 0 0 0 0.427451 0 0 0 0 0 0 0 0 0.5 0"/>
<feBlend mode="normal" in2="effect1_innerShadow_855_2370" result="effect2_innerShadow_855_2370"/>
</filter>
</defs>
</svg>
