<svg width="203" height="71" viewBox="0 0 203 71" fill="none" xmlns="http://www.w3.org/2000/svg">
<g filter="url(#filter0_ii_579_785)">
<rect x="5" y="2" width="193" height="67" rx="28" fill="#9BB55D" stroke="#90A956" stroke-width="4"/>
<path d="M22.6625 15.5316C31.0133 6.74278 42.8402 7.29427 50.308 8.84507C54.0835 9.6291 55.0387 12.0043 52.5642 13.1443C51.7956 13.4984 50.7778 13.6874 49.64 13.6874L47.2034 13.6874C45.3149 13.6874 43.5552 13.9048 42.0338 14.3261L39.2549 15.0956C36.011 15.9938 33.3246 17.2941 31.3524 18.9206L24.8403 24.2913C21.1726 28.7201 14.3374 27.7772 16.9223 23.0113C18.0328 20.9639 19.8456 18.4961 22.6625 15.5316Z" fill="white"/>
</g>
<defs>
<filter id="filter0_ii_579_785" x="3" y="0" width="203" height="77" filterUnits="userSpaceOnUse" color-interpolation-filters="sRGB">
<feFlood flood-opacity="0" result="BackgroundImageFix"/>
<feBlend mode="normal" in="SourceGraphic" in2="BackgroundImageFix" result="shape"/>
<feColorMatrix in="SourceAlpha" type="matrix" values="0 0 0 0 0 0 0 0 0 0 0 0 0 0 0 0 0 0 127 0" result="hardAlpha"/>
<feOffset dx="6" dy="6"/>
<feGaussianBlur stdDeviation="3"/>
<feComposite in2="hardAlpha" operator="arithmetic" k2="-1" k3="1"/>
<feColorMatrix type="matrix" values="0 0 0 0 0.439216 0 0 0 0 0.521569 0 0 0 0 0.247059 0 0 0 0.5 0"/>
<feBlend mode="normal" in2="shape" result="effect1_innerShadow_579_785"/>
<feColorMatrix in="SourceAlpha" type="matrix" values="0 0 0 0 0 0 0 0 0 0 0 0 0 0 0 0 0 0 127 0" result="hardAlpha"/>
<feOffset dx="-6" dy="-6"/>
<feComposite in2="hardAlpha" operator="arithmetic" k2="-1" k3="1"/>
<feColorMatrix type="matrix" values="0 0 0 0 0.437855 0 0 0 0 0.520833 0 0 0 0 0.245226 0 0 0 0.5 0"/>
<feBlend mode="normal" in2="effect1_innerShadow_579_785" result="effect2_innerShadow_579_785"/>
</filter>
</defs>
</svg>
