<svg width="203" height="70" viewBox="0 0 203 70" fill="none" xmlns="http://www.w3.org/2000/svg">
<g filter="url(#filter0_ii_579_789)">
<rect x="5" y="2" width="193" height="66" rx="28" fill="#ED950D" stroke="#C98239" stroke-width="4"/>
<path d="M22.6625 15.3127C31.0023 6.65912 42.8089 7.18996 50.2783 8.71428C54.0638 9.4868 55.0336 11.8374 52.5581 12.9618C51.7933 13.3091 50.7808 13.4945 49.648 13.4945L47.2038 13.4945C45.3149 13.4945 43.5557 13.7087 42.035 14.1238L39.2547 14.8828C36.0107 15.7685 33.3241 17.0507 31.3506 18.6554L24.8403 23.949C21.1686 28.3202 14.3366 27.3785 16.9296 22.6738C18.0407 20.6578 19.8518 18.2291 22.6625 15.3127Z" fill="white"/>
</g>
<defs>
<filter id="filter0_ii_579_789" x="3" y="0" width="203" height="76" filterUnits="userSpaceOnUse" color-interpolation-filters="sRGB">
<feFlood flood-opacity="0" result="BackgroundImageFix"/>
<feBlend mode="normal" in="SourceGraphic" in2="BackgroundImageFix" result="shape"/>
<feColorMatrix in="SourceAlpha" type="matrix" values="0 0 0 0 0 0 0 0 0 0 0 0 0 0 0 0 0 0 127 0" result="hardAlpha"/>
<feOffset dx="6" dy="6"/>
<feGaussianBlur stdDeviation="3"/>
<feComposite in2="hardAlpha" operator="arithmetic" k2="-1" k3="1"/>
<feColorMatrix type="matrix" values="0 0 0 0 0.705882 0 0 0 0 0.427451 0 0 0 0 0 0 0 0 0.5 0"/>
<feBlend mode="normal" in2="shape" result="effect1_innerShadow_579_789"/>
<feColorMatrix in="SourceAlpha" type="matrix" values="0 0 0 0 0 0 0 0 0 0 0 0 0 0 0 0 0 0 127 0" result="hardAlpha"/>
<feOffset dx="-6" dy="-6"/>
<feComposite in2="hardAlpha" operator="arithmetic" k2="-1" k3="1"/>
<feColorMatrix type="matrix" values="0 0 0 0 0.705882 0 0 0 0 0.427451 0 0 0 0 0 0 0 0 0.5 0"/>
<feBlend mode="normal" in2="effect1_innerShadow_579_789" result="effect2_innerShadow_579_789"/>
</filter>
</defs>
</svg>
