<svg width="101" height="89" viewBox="0 0 101 89" fill="none" xmlns="http://www.w3.org/2000/svg">
<g filter="url(#filter0_ii_558_2326)">
<rect x="2.23584" y="2" width="96.5283" height="85" rx="38" fill="#ED950D" stroke="#C98239" stroke-width="4"/>
<path d="M17.864 22.6896C22.9299 10.4671 30.3352 12.6555 34.2298 14.9775C35.7557 15.8872 35.7887 18.0343 34.517 19.3773C33.9113 20.017 33.0927 20.3779 32.2478 20.3779L31.2575 20.3779C30.2503 20.3779 29.2549 20.6715 28.381 21.2263L26.9441 22.1384C25.1801 23.2581 23.7204 24.849 22.7179 26.7446L19.3126 33.1828C19.141 33.5073 18.992 33.844 18.8669 34.1902C17.1523 38.9368 13.4198 39.014 14.3117 34.0447C14.8339 31.1357 15.9048 27.4165 17.864 22.6896Z" fill="white"/>
<path d="M38.8276 44.6611C38.8276 45.0827 38.9074 45.4757 39.0669 45.8403C39.2264 46.1935 39.4827 46.541 39.8359 46.8828L52.7559 59.5293C53.2799 60.0534 53.9123 60.3154 54.6528 60.3154C55.1541 60.3154 55.6099 60.1901 56.02 59.9395C56.4416 59.7002 56.7777 59.3755 57.0283 58.9653C57.279 58.5552 57.4043 58.0994 57.4043 57.5981C57.4043 56.8462 57.1081 56.174 56.5156 55.5815L45.2534 44.644L56.5156 33.7236C57.1081 33.154 57.4043 32.4875 57.4043 31.7241C57.4043 31.2228 57.279 30.7671 57.0283 30.3569C56.7777 29.9468 56.4416 29.6221 56.02 29.3828C55.6099 29.1322 55.1541 29.0068 54.6528 29.0068C53.9123 29.0068 53.2799 29.2632 52.7559 29.7759L39.8359 42.4224C39.4941 42.7642 39.2435 43.1174 39.084 43.4819C38.9245 43.8351 38.839 44.2282 38.8276 44.6611Z" fill="white"/>
<path d="M38.8276 44.6611L37.828 44.6348L37.8276 44.648V44.6611H38.8276ZM39.0669 45.8403L38.1507 46.2412L38.1555 46.2519L39.0669 45.8403ZM39.8359 46.8828L40.5355 46.1682L40.5314 46.1642L39.8359 46.8828ZM52.7559 59.5293L53.463 58.8222L53.4554 58.8147L52.7559 59.5293ZM56.02 59.9395L55.5264 59.0698L55.5124 59.0777L55.4986 59.0862L56.02 59.9395ZM56.5156 55.5815L57.2227 54.8744L57.2176 54.8693L57.2123 54.8642L56.5156 55.5815ZM45.2534 44.644L44.5573 43.9261L43.8175 44.6435L44.5567 45.3614L45.2534 44.644ZM56.5156 33.7236L55.8225 33.0028L55.8195 33.0057L56.5156 33.7236ZM56.02 29.3828L55.4986 30.2361L55.5124 30.2445L55.5264 30.2525L56.02 29.3828ZM52.7559 29.7759L52.0566 29.061L52.0564 29.0613L52.7559 29.7759ZM39.8359 42.4224L39.1364 41.7077L39.1288 41.7153L39.8359 42.4224ZM39.084 43.4819L39.9954 43.8935L40.0001 43.8828L39.084 43.4819ZM37.8276 44.6611C37.8276 45.2123 37.9327 45.7428 38.1507 46.2411L39.9831 45.4395C39.8821 45.2087 39.8276 44.953 39.8276 44.6611H37.8276ZM38.1555 46.2519C38.3789 46.7465 38.7199 47.1944 39.1405 47.6014L40.5314 46.1642C40.2455 45.8876 40.0739 45.6406 39.9783 45.4287L38.1555 46.2519ZM39.1364 47.5974L52.0564 60.2439L53.4554 58.8147L40.5354 46.1682L39.1364 47.5974ZM52.0488 60.2364C52.7602 60.9479 53.6468 61.3154 54.6528 61.3154V59.3154C54.1777 59.3154 53.7997 59.1589 53.463 58.8222L52.0488 60.2364ZM54.6528 61.3154C55.3299 61.3154 55.9674 61.1436 56.5415 60.7927L55.4986 59.0862C55.2523 59.2366 54.9784 59.3154 54.6528 59.3154V61.3154ZM56.5136 60.8091C57.0814 60.4869 57.5418 60.0429 57.8816 59.4868L56.175 58.4439C56.0136 58.7081 55.8018 58.9135 55.5264 59.0698L56.5136 60.8091ZM57.8816 59.4868C58.2324 58.9127 58.4043 58.2752 58.4043 57.5981H56.4043C56.4043 57.9237 56.3255 58.1976 56.175 58.4439L57.8816 59.4868ZM58.4043 57.5981C58.4043 56.5496 57.9793 55.631 57.2227 54.8744L55.8085 56.2887C56.2369 56.717 56.4043 57.1428 56.4043 57.5981H58.4043ZM57.2123 54.8642L45.9501 43.9267L44.5567 45.3614L55.8189 56.2989L57.2123 54.8642ZM45.9495 45.362L57.2118 34.4416L55.8195 33.0057L44.5573 43.9261L45.9495 45.362ZM57.2087 34.4445C57.9805 33.7024 58.4043 32.7818 58.4043 31.7241H56.4043C56.4043 32.1931 56.2356 32.6056 55.8225 33.0028L57.2087 34.4445ZM58.4043 31.7241C58.4043 31.0471 58.2324 30.4096 57.8816 29.8355L56.175 30.8784C56.3255 31.1246 56.4043 31.3986 56.4043 31.7241H58.4043ZM57.8816 29.8355C57.5418 29.2794 57.0814 28.8354 56.5136 28.5131L55.5264 30.2525C55.8018 30.4088 56.0136 30.6142 56.175 30.8784L57.8816 29.8355ZM56.5415 28.5295C55.9674 28.1787 55.3299 28.0068 54.6528 28.0068V30.0068C54.9784 30.0068 55.2523 30.0856 55.4986 30.2361L56.5415 28.5295ZM54.6528 28.0068C53.6538 28.0068 52.7696 28.3635 52.0566 29.061L53.4552 30.4907C53.7903 30.1629 54.1707 30.0068 54.6528 30.0068V28.0068ZM52.0564 29.0613L39.1364 41.7077L40.5354 43.137L53.4554 30.4905L52.0564 29.0613ZM39.1288 41.7153C38.7173 42.1268 38.3868 42.5807 38.1678 43.0811L40.0001 43.8828C40.1002 43.654 40.271 43.4015 40.543 43.1295L39.1288 41.7153ZM38.1726 43.0703C37.9522 43.5583 37.8425 44.0845 37.828 44.6348L39.8273 44.6874C39.8356 44.3719 39.8967 44.1119 39.9954 43.8935L38.1726 43.0703Z" fill="white"/>
</g>
<defs>
<filter id="filter0_ii_558_2326" x="0" y="0" width="107" height="95" filterUnits="userSpaceOnUse" color-interpolation-filters="sRGB">
<feFlood flood-opacity="0" result="BackgroundImageFix"/>
<feBlend mode="normal" in="SourceGraphic" in2="BackgroundImageFix" result="shape"/>
<feColorMatrix in="SourceAlpha" type="matrix" values="0 0 0 0 0 0 0 0 0 0 0 0 0 0 0 0 0 0 127 0" result="hardAlpha"/>
<feOffset dx="6" dy="6"/>
<feGaussianBlur stdDeviation="3"/>
<feComposite in2="hardAlpha" operator="arithmetic" k2="-1" k3="1"/>
<feColorMatrix type="matrix" values="0 0 0 0 0.705882 0 0 0 0 0.427451 0 0 0 0 0 0 0 0 0.5 0"/>
<feBlend mode="normal" in2="shape" result="effect1_innerShadow_558_2326"/>
<feColorMatrix in="SourceAlpha" type="matrix" values="0 0 0 0 0 0 0 0 0 0 0 0 0 0 0 0 0 0 127 0" result="hardAlpha"/>
<feOffset dx="-6" dy="-6"/>
<feComposite in2="hardAlpha" operator="arithmetic" k2="-1" k3="1"/>
<feColorMatrix type="matrix" values="0 0 0 0 0.705882 0 0 0 0 0.427451 0 0 0 0 0 0 0 0 0.5 0"/>
<feBlend mode="normal" in2="effect1_innerShadow_558_2326" result="effect2_innerShadow_558_2326"/>
</filter>
</defs>
</svg>
