<svg width="101" height="89" viewBox="0 0 101 89" fill="none" xmlns="http://www.w3.org/2000/svg">
<g filter="url(#filter0_ii_751_255)">
<rect x="2.23633" y="2" width="96.5283" height="85" rx="38" fill="#ED950D" stroke="#C98239" stroke-width="4"/>
<path d="M17.8644 22.6896C22.9304 10.4671 30.3357 12.6555 34.2303 14.9775C35.7562 15.8872 35.7892 18.0343 34.5175 19.3773C33.9118 20.017 33.0932 20.3779 32.2483 20.3779L31.258 20.3779C30.2508 20.3779 29.2554 20.6715 28.3815 21.2263L26.9446 22.1384C25.1806 23.2581 23.7209 24.849 22.7183 26.7446L19.313 33.1828C19.1414 33.5073 18.9925 33.844 18.8674 34.1902C17.1527 38.9368 13.4202 39.014 14.3122 34.0447C14.8344 31.1357 15.9053 27.4165 17.8644 22.6896Z" fill="white"/>
<path d="M55.1143 57.6665H45.8857V46.9341C45.8857 46.5239 46.0111 46.1992 46.2617 45.96C46.5124 45.7093 46.8428 45.584 47.2529 45.584H53.7642C54.1743 45.584 54.499 45.7093 54.7383 45.96C54.9889 46.1992 55.1143 46.5239 55.1143 46.9341V57.6665ZM34.709 57.8374C34.709 59.1476 35.1077 60.1787 35.9053 60.9307C36.7142 61.694 37.8079 62.0757 39.1865 62.0757H61.8306C63.1978 62.0757 64.2801 61.694 65.0776 60.9307C65.8866 60.1787 66.291 59.1476 66.291 57.8374V45.7378L51.6108 33.3989C50.8817 32.7837 50.1468 32.7837 49.4062 33.3989L34.709 45.7378V57.8374ZM28.8301 42.2856C28.8301 42.8895 29.0295 43.3965 29.4282 43.8066C29.8384 44.2054 30.3853 44.4048 31.0688 44.4048C31.3879 44.4048 31.6955 44.3364 31.9917 44.1997C32.2879 44.0516 32.5671 43.8693 32.8291 43.6528L49.5771 29.6221C49.8848 29.36 50.1981 29.229 50.5171 29.229C50.8475 29.229 51.1665 29.36 51.4741 29.6221L68.188 43.6528C68.45 43.8693 68.7292 44.0516 69.0254 44.1997C69.3216 44.3364 69.6292 44.4048 69.9482 44.4048C70.5977 44.4048 71.1274 44.2168 71.5376 43.8408C71.9591 43.4648 72.1699 42.9578 72.1699 42.3198C72.1699 41.6021 71.8794 40.9982 71.2983 40.5083L53.5078 25.5718C52.6077 24.8084 51.6108 24.4268 50.5171 24.4268C49.4347 24.4268 48.4378 24.8084 47.5264 25.5718L29.7188 40.5254C29.1263 41.0267 28.8301 41.6134 28.8301 42.2856ZM60.6685 33.0059L66.4619 37.8423V28.9727C66.4619 28.5739 66.3423 28.2549 66.103 28.0156C65.8638 27.7764 65.5448 27.6567 65.146 27.6567H62.0015C61.6027 27.6567 61.278 27.7764 61.0273 28.0156C60.7881 28.2549 60.6685 28.5739 60.6685 28.9727V33.0059Z" fill="white"/>
<path d="M55.1143 57.6665V58.6665H56.1143V57.6665H55.1143ZM45.8857 57.6665H44.8857V58.6665H45.8857V57.6665ZM46.2617 45.96L46.9522 46.6833L46.9606 46.6753L46.9688 46.6671L46.2617 45.96ZM54.7383 45.96L54.0149 46.6504L54.031 46.6673L54.0478 46.6833L54.7383 45.96ZM35.9053 60.9307L36.5916 60.2034L36.5913 60.2031L35.9053 60.9307ZM65.0776 60.9307L64.3968 60.1982L64.3914 60.2032L64.3862 60.2082L65.0776 60.9307ZM66.291 45.7378H67.291V45.272L66.9344 44.9723L66.291 45.7378ZM51.6108 33.3989L50.966 34.1632L50.9674 34.1644L51.6108 33.3989ZM49.4062 33.3989L48.7672 32.6297L48.7633 32.633L49.4062 33.3989ZM34.709 45.7378L34.066 44.9719L33.709 45.2716V45.7378H34.709ZM29.4282 43.8066L28.7112 44.5037L28.721 44.5138L28.7311 44.5236L29.4282 43.8066ZM31.9917 44.1997L32.4108 45.1077L32.4249 45.1011L32.4389 45.0941L31.9917 44.1997ZM32.8291 43.6528L33.466 44.4238L33.4713 44.4194L32.8291 43.6528ZM49.5771 29.6221L50.2194 30.3886L50.2256 30.3833L49.5771 29.6221ZM51.4741 29.6221L50.8256 30.3833L50.8312 30.388L51.4741 29.6221ZM68.188 43.6528L67.545 44.4188L67.5511 44.4238L68.188 43.6528ZM69.0254 44.1997L68.5782 45.0941L68.5921 45.1011L68.6063 45.1077L69.0254 44.1997ZM71.5376 43.8408L70.8719 43.0945L70.8619 43.1037L71.5376 43.8408ZM71.2983 40.5083L71.9429 39.7438L71.9413 39.7424L71.2983 40.5083ZM53.5078 25.5718L52.861 26.3344L52.8648 26.3376L53.5078 25.5718ZM47.5264 25.5718L46.8843 24.8051L46.8833 24.806L47.5264 25.5718ZM29.7188 40.5254L29.0757 39.7596L29.0728 39.762L29.7188 40.5254ZM60.6685 33.0059H59.6685V33.4737L60.0276 33.7735L60.6685 33.0059ZM66.4619 37.8423L65.8211 38.6099L67.4619 39.9797V37.8423H66.4619ZM61.0273 28.0156L60.3369 27.2923L60.3285 27.3003L60.3202 27.3085L61.0273 28.0156ZM55.1143 56.6665H45.8857V58.6665H55.1143V56.6665ZM46.8857 57.6665V46.9341H44.8857V57.6665H46.8857ZM46.8857 46.9341C46.8857 46.7429 46.9354 46.6994 46.9522 46.6833L45.5712 45.2366C45.0868 45.6991 44.8857 46.305 44.8857 46.9341H46.8857ZM46.9688 46.6671C47.0023 46.6336 47.0629 46.584 47.2529 46.584V44.584C46.6227 44.584 46.0224 44.785 45.5546 45.2529L46.9688 46.6671ZM47.2529 46.584H53.7642V44.584H47.2529V46.584ZM53.7642 46.584C53.9554 46.584 53.9989 46.6336 54.0149 46.6504L55.4616 45.2695C54.9992 44.785 54.3932 44.584 53.7642 44.584V46.584ZM54.0478 46.6833C54.0646 46.6994 54.1143 46.7429 54.1143 46.9341H56.1143C56.1143 46.305 55.9132 45.6991 55.4288 45.2366L54.0478 46.6833ZM54.1143 46.9341V57.6665H56.1143V46.9341H54.1143ZM33.709 57.8374C33.709 59.3648 34.1826 60.6808 35.2193 61.6583L36.5913 60.2031C36.0329 59.6766 35.709 58.9304 35.709 57.8374H33.709ZM35.219 61.658C36.2554 62.636 37.6169 63.0757 39.1865 63.0757V61.0757C37.999 61.0757 37.173 60.752 36.5916 60.2034L35.219 61.658ZM39.1865 63.0757H61.8306V61.0757H39.1865V63.0757ZM61.8306 63.0757C63.3907 63.0757 64.7435 62.6348 65.7691 61.6531L64.3862 60.2082C63.8168 60.7533 63.0048 61.0757 61.8306 61.0757V63.0757ZM65.7585 61.6631C66.8088 60.6868 67.291 59.3692 67.291 57.8374H65.291C65.291 58.926 64.9643 59.6707 64.3968 60.1982L65.7585 61.6631ZM67.291 57.8374V45.7378H65.291V57.8374H67.291ZM66.9344 44.9723L52.2543 32.6334L50.9674 34.1644L65.6476 46.5033L66.9344 44.9723ZM52.2557 32.6346C51.7655 32.221 51.1792 31.9375 50.5128 31.9375C49.8479 31.9375 49.2607 32.2198 48.7672 32.6297L50.0453 34.1681C50.2924 33.9628 50.4429 33.9375 50.5128 33.9375C50.5813 33.9375 50.727 33.9616 50.966 34.1632L52.2557 32.6346ZM48.7633 32.633L34.066 44.9719L35.352 46.5037L50.0492 34.1648L48.7633 32.633ZM33.709 45.7378V57.8374H35.709V45.7378H33.709ZM27.8301 42.2856C27.8301 43.1338 28.1201 43.8957 28.7112 44.5037L30.1452 43.1096C29.9388 42.8972 29.8301 42.6452 29.8301 42.2856H27.8301ZM28.7311 44.5236C29.3635 45.1384 30.1791 45.4048 31.0688 45.4048V43.4048C30.5914 43.4048 30.3133 43.2724 30.1253 43.0896L28.7311 44.5236ZM31.0688 45.4048C31.5359 45.4048 31.9862 45.3036 32.4108 45.1077L31.5726 43.2917C31.4047 43.3692 31.2398 43.4048 31.0688 43.4048V45.4048ZM32.4389 45.0941C32.8046 44.9113 33.1471 44.6872 33.466 44.4238L32.1922 42.8819C31.987 43.0514 31.7713 43.1919 31.5445 43.3053L32.4389 45.0941ZM33.4713 44.4194L50.2193 30.3886L48.935 28.8555L32.1869 42.8863L33.4713 44.4194ZM50.2256 30.3833C50.4019 30.2332 50.4936 30.229 50.5171 30.229V28.229C49.9025 28.229 49.3676 28.4869 48.9287 28.8608L50.2256 30.3833ZM50.5171 30.229C50.56 30.229 50.657 30.2397 50.8257 30.3833L52.1226 28.8608C51.676 28.4804 51.135 28.229 50.5171 28.229V30.229ZM50.8312 30.388L67.545 44.4187L68.8309 42.8869L52.1171 28.8562L50.8312 30.388ZM67.5511 44.4238C67.87 44.6872 68.2125 44.9113 68.5782 45.0941L69.4726 43.3053C69.2458 43.1919 69.0301 43.0514 68.8249 42.8819L67.5511 44.4238ZM68.6063 45.1077C69.0309 45.3036 69.4812 45.4048 69.9482 45.4048V43.4048C69.7773 43.4048 69.6124 43.3692 69.4444 43.2917L68.6063 45.1077ZM69.9482 45.4048C70.8033 45.4048 71.5883 45.1509 72.2133 44.578L70.8619 43.1037C70.6666 43.2827 70.392 43.4048 69.9482 43.4048V45.4048ZM72.2032 44.5871C72.8663 43.9957 73.1699 43.2019 73.1699 42.3198H71.1699C71.1699 42.7138 71.052 42.934 70.872 43.0945L72.2032 44.5871ZM73.1699 42.3198C73.1699 41.288 72.7342 40.4109 71.9429 39.7438L70.6537 41.2728C71.0246 41.5855 71.1699 41.9161 71.1699 42.3198H73.1699ZM71.9413 39.7424L54.1508 24.8059L52.8648 26.3376L70.6553 41.2742L71.9413 39.7424ZM54.1546 24.8091C53.0893 23.9056 51.8672 23.4268 50.5171 23.4268V25.4268C51.3545 25.4268 52.1262 25.7113 52.861 26.3344L54.1546 24.8091ZM50.5171 23.4268C49.1763 23.4268 47.9568 23.9069 46.8843 24.8051L48.1684 26.3384C48.9189 25.7099 49.6931 25.4268 50.5171 25.4268V23.4268ZM46.8833 24.806L29.0757 39.7596L30.3618 41.2912L48.1694 26.3376L46.8833 24.806ZM29.0728 39.762C28.2945 40.4206 27.8301 41.2722 27.8301 42.2856H29.8301C29.8301 41.9547 29.9582 41.6328 30.3647 41.2888L29.0728 39.762ZM60.0276 33.7735L65.8211 38.6099L67.1028 37.0746L61.3093 32.2382L60.0276 33.7735ZM67.4619 37.8423V28.9727H65.4619V37.8423H67.4619ZM67.4619 28.9727C67.4619 28.3596 67.2701 27.7685 66.8101 27.3085L65.3959 28.7227C65.4144 28.7413 65.4619 28.7881 65.4619 28.9727H67.4619ZM66.8101 27.3085C66.3501 26.8485 65.759 26.6567 65.146 26.6567V28.6567C65.3305 28.6567 65.3774 28.7042 65.3959 28.7227L66.8101 27.3085ZM65.146 26.6567H62.0015V28.6567H65.146V26.6567ZM62.0015 26.6567C61.3873 26.6567 60.8017 26.8486 60.3369 27.2923L61.7178 28.739C61.7543 28.7042 61.8181 28.6567 62.0015 28.6567V26.6567ZM60.3202 27.3085C59.8602 27.7685 59.6685 28.3596 59.6685 28.9727H61.6685C61.6685 28.7881 61.7159 28.7413 61.7345 28.7227L60.3202 27.3085ZM59.6685 28.9727V33.0059H61.6685V28.9727H59.6685Z" fill="white"/>
</g>
<defs>
<filter id="filter0_ii_751_255" x="0" y="0" width="107" height="95" filterUnits="userSpaceOnUse" color-interpolation-filters="sRGB">
<feFlood flood-opacity="0" result="BackgroundImageFix"/>
<feBlend mode="normal" in="SourceGraphic" in2="BackgroundImageFix" result="shape"/>
<feColorMatrix in="SourceAlpha" type="matrix" values="0 0 0 0 0 0 0 0 0 0 0 0 0 0 0 0 0 0 127 0" result="hardAlpha"/>
<feOffset dx="6" dy="6"/>
<feGaussianBlur stdDeviation="3"/>
<feComposite in2="hardAlpha" operator="arithmetic" k2="-1" k3="1"/>
<feColorMatrix type="matrix" values="0 0 0 0 0.705882 0 0 0 0 0.427451 0 0 0 0 0 0 0 0 0.5 0"/>
<feBlend mode="normal" in2="shape" result="effect1_innerShadow_751_255"/>
<feColorMatrix in="SourceAlpha" type="matrix" values="0 0 0 0 0 0 0 0 0 0 0 0 0 0 0 0 0 0 127 0" result="hardAlpha"/>
<feOffset dx="-6" dy="-6"/>
<feComposite in2="hardAlpha" operator="arithmetic" k2="-1" k3="1"/>
<feColorMatrix type="matrix" values="0 0 0 0 0.705882 0 0 0 0 0.427451 0 0 0 0 0 0 0 0 0.5 0"/>
<feBlend mode="normal" in2="effect1_innerShadow_751_255" result="effect2_innerShadow_751_255"/>
</filter>
</defs>
</svg>
