<svg width="101" height="89" viewBox="0 0 101 89" fill="none" xmlns="http://www.w3.org/2000/svg">
<g filter="url(#filter0_ii_751_88)">
<rect x="2.23633" y="2" width="96.5283" height="85" rx="38" fill="#ED950D" stroke="#C98239" stroke-width="4"/>
<path d="M17.8644 22.6896C22.9304 10.4671 30.3357 12.6555 34.2303 14.9775C35.7562 15.8872 35.7892 18.0343 34.5175 19.3773C33.9118 20.017 33.0932 20.3779 32.2483 20.3779L31.258 20.3779C30.2508 20.3779 29.2554 20.6715 28.3815 21.2263L26.9446 22.1384C25.1806 23.2581 23.7209 24.849 22.7183 26.7446L19.313 33.1828C19.1414 33.5073 18.9925 33.844 18.8674 34.1902C17.1527 38.9368 13.4202 39.014 14.3122 34.0447C14.8344 31.1357 15.9053 27.4165 17.8644 22.6896Z" fill="white"/>
<path d="M62.5577 56.5765C64.4347 55.162 65.924 53.49 67.0255 51.5603C68.127 49.6305 68.8385 47.5842 69.1602 45.4212C69.4645 43.2558 69.3483 41.0975 68.8115 38.9464C68.2771 36.7779 67.3065 34.7602 65.8995 32.893C64.5 31.0358 62.8353 29.5564 60.9056 28.455C58.9858 27.346 56.9431 26.6394 54.7777 26.3351C52.595 26.0283 50.4281 26.1433 48.2769 26.6801C46.1258 27.2169 44.1117 28.1925 42.2347 29.6069C41.6618 30.0387 41.3302 30.5751 41.2401 31.216C41.1426 31.8471 41.306 32.4442 41.7304 33.0073C42.1472 33.5605 42.6687 33.8723 43.2948 33.9426C43.9209 34.0129 44.5204 33.8322 45.0934 33.4004C46.4369 32.388 47.8863 31.6908 49.4416 31.3087C50.9869 30.9341 52.5392 30.8564 54.0983 31.0755C55.6499 31.2847 57.1206 31.7873 58.5103 32.5833C59.8827 33.3768 61.0713 34.4403 62.0763 35.774C63.0888 37.1175 63.7909 38.5632 64.1829 40.111C64.5575 41.6564 64.6352 43.2086 64.4161 44.7677C64.1895 46.3169 63.6832 47.7827 62.8972 49.1649C62.0938 50.5448 61.0203 51.7409 59.6768 52.7533C58.3135 53.7806 56.8617 54.4952 55.3213 54.897C53.7636 55.2964 52.2127 55.3964 50.6685 55.197C49.1242 54.9977 47.6697 54.5062 46.3047 53.7225C44.9299 52.9464 43.74 51.8914 42.735 50.5578C42.4745 50.212 42.2399 49.8699 42.0313 49.5315C41.8153 49.1831 41.6278 48.852 41.4687 48.5382L47.2709 49.3934C47.5579 49.4249 47.8375 49.4156 48.1095 49.3655C48.3815 49.3154 48.6509 49.1899 48.9176 48.9889C49.4313 48.6018 49.737 48.0927 49.8345 47.4616C49.9147 46.8281 49.7612 46.2545 49.3741 45.7407C48.9796 45.2172 48.4829 44.9177 47.884 44.8424L37.2081 43.4082C36.8616 43.3595 36.5375 43.3714 36.2359 43.4438C35.9243 43.5237 35.6352 43.6641 35.3685 43.8651C34.8449 44.2597 34.5344 44.8034 34.437 45.4963L32.8433 56.1764C32.7383 56.7976 32.8794 57.365 33.2665 57.8787C33.6536 58.3924 34.1676 58.6943 34.8086 58.7844C35.4421 58.8646 36.0256 58.7037 36.5591 58.3017C36.8159 58.1082 37.0096 57.8925 37.1402 57.6547C37.2633 57.407 37.3493 57.1409 37.3982 56.8562L38.0804 51.7188C38.2122 51.9757 38.3649 52.2401 38.5387 52.5119C38.6952 52.7812 38.8739 53.0492 39.0749 53.3159C40.4744 55.1732 42.1304 56.6513 44.0428 57.7503C45.9552 58.8494 47.9854 59.5499 50.1335 59.8518C52.2643 60.1512 54.4052 60.0325 56.5564 59.4958C58.6902 58.9565 60.6906 57.9834 62.5577 56.5765Z" fill="white"/>
<path d="M69.1602 45.4212L70.1493 45.5683L70.1504 45.5604L69.1602 45.4212ZM68.8115 38.9464L67.8405 39.1857L67.8412 39.1885L68.8115 38.9464ZM60.9056 28.455L60.4054 29.3209L60.4099 29.3234L60.9056 28.455ZM54.7777 26.3351L54.6386 27.3253L54.7777 26.3351ZM41.2401 31.216L42.2285 31.3688L42.2304 31.3552L41.2401 31.216ZM49.4416 31.3087L49.206 30.3369L49.203 30.3376L49.4416 31.3087ZM54.0983 31.0755L53.9591 32.0658L53.9646 32.0665L54.0983 31.0755ZM58.5103 32.5833L59.0108 31.7175L59.0073 31.7155L58.5103 32.5833ZM64.1829 40.111L65.1548 39.8754L65.1523 39.8655L64.1829 40.111ZM64.4161 44.7677L65.4056 44.9124L65.4064 44.9069L64.4161 44.7677ZM62.8972 49.1649L63.7614 49.6681L63.7664 49.6593L62.8972 49.1649ZM55.3213 54.897L55.5697 55.8657L55.5737 55.8646L55.3213 54.897ZM46.3047 53.7225L46.8026 52.8553L46.7964 52.8517L46.3047 53.7225ZM42.0313 49.5315L42.8827 49.0068L42.8812 49.0044L42.0313 49.5315ZM41.4687 48.5382L41.6146 47.5489L39.7035 47.2672L40.5767 48.9902L41.4687 48.5382ZM47.2709 49.3934L47.1251 50.3827L47.1434 50.3854L47.1618 50.3874L47.2709 49.3934ZM49.8345 47.4616L50.8227 47.6143L50.8248 47.6008L50.8266 47.5872L49.8345 47.4616ZM47.884 44.8424L47.7509 45.8335L47.7592 45.8346L47.884 44.8424ZM37.2081 43.4082L37.0689 44.3985L37.0749 44.3993L37.2081 43.4082ZM36.2359 43.4438L36.0024 42.4715L35.9949 42.4732L35.9875 42.4751L36.2359 43.4438ZM34.437 45.4963L35.4261 45.6439L35.4273 45.6355L34.437 45.4963ZM32.8433 56.1764L33.8293 56.343L33.8309 56.3335L33.8323 56.3239L32.8433 56.1764ZM34.8086 58.7844L34.6694 59.7748L34.683 59.7765L34.8086 58.7844ZM37.1402 57.6547L38.0168 58.136L38.0266 58.1181L38.0357 58.0999L37.1402 57.6547ZM37.3982 56.8562L38.3838 57.0254L38.387 57.0067L38.3895 56.9879L37.3982 56.8562ZM38.0804 51.7188L38.9704 51.2627L37.5105 48.4141L37.0892 51.5871L38.0804 51.7188ZM38.5387 52.5119L39.4033 52.0095L39.3926 51.991L39.3811 51.9731L38.5387 52.5119ZM56.5564 59.4958L56.7985 60.466L56.8014 60.4653L56.5564 59.4958ZM63.1596 57.3751C65.1387 55.8837 66.7212 54.1105 67.8939 52.056L66.157 51.0645C65.1267 52.8695 63.7308 54.4404 61.9559 55.7778L63.1596 57.3751ZM67.8939 52.056C69.0559 50.0203 69.8091 47.856 70.1493 45.5683L68.171 45.2741C67.8679 47.3124 67.198 49.2408 66.157 51.0645L67.8939 52.056ZM70.1504 45.5604C70.4729 43.266 70.3492 40.9783 69.7817 38.7043L67.8412 39.1885C68.3474 41.2168 68.4561 43.2456 68.1699 45.282L70.1504 45.5604ZM69.7824 38.7071C69.2142 36.4013 68.1826 34.2612 66.6981 32.2912L65.1009 33.4949C66.4304 35.2592 67.34 37.1546 67.8405 39.1857L69.7824 38.7071ZM66.6981 32.2912C65.2207 30.3306 63.4546 28.7585 61.4013 27.5865L60.4099 29.3234C62.2161 30.3544 63.7792 31.741 65.1009 33.4949L66.6981 32.2912ZM61.4058 27.589C59.3763 26.4168 57.2113 25.6673 54.9169 25.3448L54.6386 27.3253C56.675 27.6115 58.5952 28.2753 60.4054 29.3209L61.4058 27.589ZM54.9169 25.3448C52.6062 25.0201 50.3098 25.1422 48.0348 25.7099L48.519 27.6504C50.5463 27.1445 52.5838 27.0366 54.6386 27.3253L54.9169 25.3448ZM48.0348 25.7099C45.7458 26.2811 43.6106 27.318 41.6329 28.8083L42.8366 30.4056C44.6129 29.067 46.5058 28.1527 48.519 27.6504L48.0348 25.7099ZM41.6329 28.8083C40.8733 29.3807 40.381 30.1436 40.2499 31.0768L42.2304 31.3552C42.2794 31.0065 42.4502 30.6967 42.8366 30.4056L41.6329 28.8083ZM40.2519 31.0633C40.1086 31.9903 40.3636 32.8552 40.9317 33.6091L42.529 32.4055C42.2485 32.0332 42.1766 31.7039 42.2284 31.3687L40.2519 31.0633ZM40.9317 33.6091C41.4958 34.3576 42.2552 34.8321 43.1832 34.9364L43.4064 32.9489C43.0822 32.9124 42.7987 32.7634 42.529 32.4055L40.9317 33.6091ZM43.1832 34.9364C44.0989 35.0392 44.9486 34.7616 45.6952 34.1991L44.4915 32.6018C44.0921 32.9028 43.7428 32.9866 43.4064 32.9489L43.1832 34.9364ZM45.6952 34.1991C46.9361 33.264 48.263 32.628 49.6801 32.2799L49.203 30.3376C47.5096 30.7536 45.9377 31.5121 44.4915 32.6018L45.6952 34.1991ZM49.6771 32.2806C51.1011 31.9354 52.5262 31.8644 53.9591 32.0658L54.2374 30.0852C52.5521 29.8484 50.8727 29.9328 49.206 30.3369L49.6771 32.2806ZM53.9646 32.0665C55.3854 32.2581 56.733 32.7177 58.0133 33.451L59.0073 31.7155C57.5082 30.8569 55.9144 30.3114 54.2319 30.0845L53.9646 32.0665ZM58.0097 33.449C59.2599 34.1718 60.349 35.1434 61.2777 36.3758L62.875 35.1722C61.7937 33.7373 60.5054 32.5817 59.0108 31.7175L58.0097 33.449ZM61.2777 36.3758C62.2144 37.6189 62.8559 38.9445 63.2135 40.3565L65.1523 39.8655C64.726 38.1819 63.9631 36.6162 62.875 35.1722L61.2777 36.3758ZM63.211 40.3466C63.5562 41.7706 63.6272 43.1957 63.4258 44.6285L65.4064 44.9069C65.6432 43.2216 65.5587 41.5422 65.1547 39.8754L63.211 40.3466ZM63.4266 44.623C63.2183 46.0473 62.7535 47.3947 62.0279 48.6706L63.7664 49.6593C64.613 48.1707 65.1607 46.5866 65.4056 44.9124L63.4266 44.623ZM62.033 48.6618C61.3001 49.9205 60.3181 51.0179 59.075 51.9547L60.2786 53.5519C61.7226 52.4638 62.8875 51.169 63.7614 49.6681L62.033 48.6618ZM59.075 51.9547C57.8084 52.9091 56.474 53.5629 55.0689 53.9294L55.5737 55.8646C57.2494 55.4275 58.8186 54.6521 60.2786 53.5519L59.075 51.9547ZM55.0729 53.9283C53.634 54.2972 52.2108 54.3878 50.7965 54.2052L50.5404 56.1888C52.2146 56.4049 53.8932 56.2955 55.5697 55.8657L55.0729 53.9283ZM50.7965 54.2052C49.384 54.0229 48.0549 53.5743 46.8026 52.8553L45.8069 54.5898C47.2844 55.4381 48.8645 55.9724 50.5404 56.1888L50.7965 54.2052ZM46.7964 52.8517C45.5481 52.147 44.4608 51.1863 43.5337 49.956L41.9364 51.1596C43.0193 52.5966 44.3117 53.7457 45.8131 54.5933L46.7964 52.8517ZM43.5337 49.956C43.2903 49.6329 43.0735 49.3165 42.8827 49.0068L41.18 50.0561C41.4063 50.4233 41.6587 50.7911 41.9364 51.1596L43.5337 49.956ZM42.8812 49.0044C42.6779 48.6766 42.5049 48.3706 42.3607 48.0861L40.5767 48.9902C40.7507 49.3334 40.9528 49.6896 41.1815 50.0585L42.8812 49.0044ZM41.3229 49.5275L47.1251 50.3827L47.4167 48.4041L41.6146 47.5489L41.3229 49.5275ZM47.1618 50.3874C47.5413 50.4291 47.9187 50.4175 48.2906 50.349L47.9284 48.382C47.7562 48.4137 47.5746 48.4207 47.38 48.3994L47.1618 50.3874ZM48.2906 50.349C48.7438 50.2655 49.1541 50.0628 49.5194 49.7875L48.3158 48.1902C48.1477 48.3169 48.0192 48.3653 47.9284 48.382L48.2906 50.349ZM49.5194 49.7875C50.2395 49.2449 50.6851 48.5049 50.8227 47.6143L48.8462 47.3089C48.7888 47.6804 48.6232 47.9586 48.3158 48.1902L49.5194 49.7875ZM50.8266 47.5872C50.9397 46.6931 50.7153 45.859 50.1728 45.1389L48.5755 46.3426C48.8071 46.6499 48.8896 46.963 48.8424 47.336L50.8266 47.5872ZM50.1728 45.1389C49.6311 44.4201 48.9004 43.9623 48.0088 43.8502L47.7592 45.8346C48.0654 45.8731 48.3281 46.0142 48.5755 46.3426L50.1728 45.1389ZM48.0171 43.8513L37.3412 42.4171L37.0749 44.3993L47.7509 45.8335L48.0171 43.8513ZM37.3472 42.4179C36.8923 42.354 36.4406 42.3662 36.0024 42.4715L36.4693 44.4162C36.6344 44.3765 36.8309 44.365 37.0689 44.3985L37.3472 42.4179ZM35.9875 42.4751C35.5432 42.5891 35.1347 42.7892 34.7667 43.0665L35.9703 44.6638C36.1357 44.5391 36.3055 44.4583 36.4842 44.4125L35.9875 42.4751ZM34.7667 43.0665C34.016 43.6322 33.5783 44.4212 33.4467 45.3572L35.4273 45.6355C35.4905 45.1856 35.6738 44.8872 35.9703 44.6638L34.7667 43.0665ZM33.448 45.3488L31.8542 56.0288L33.8323 56.3239L35.4261 45.6439L33.448 45.3488ZM31.8573 56.0097C31.7054 56.9083 31.9193 57.7525 32.4679 58.4805L34.0651 57.2769C33.8395 56.9775 33.7712 56.6868 33.8293 56.343L31.8573 56.0097ZM32.4679 58.4805C33.0157 59.2075 33.7677 59.6479 34.6694 59.7747L34.9478 57.7941C34.5676 57.7407 34.2915 57.5773 34.0651 57.2769L32.4679 58.4805ZM34.683 59.7765C35.5878 59.891 36.43 59.6511 37.1609 59.1003L35.9572 57.5031C35.6212 57.7563 35.2964 57.8382 34.9342 57.7923L34.683 59.7765ZM37.1609 59.1003C37.51 58.8372 37.8066 58.5187 38.0168 58.136L36.2637 57.1734C36.2126 57.2663 36.1218 57.3791 35.9572 57.5031L37.1609 59.1003ZM38.0357 58.0999C38.204 57.7613 38.3192 57.4016 38.3838 57.0254L36.4126 56.6871C36.3795 56.8801 36.3227 57.0528 36.2448 57.2095L38.0357 58.0999ZM38.3895 56.9879L39.0717 51.8504L37.0892 51.5871L36.4069 56.7246L38.3895 56.9879ZM37.1905 52.1748C37.3383 52.4632 37.5073 52.7552 37.6963 53.0506L39.3811 51.9731C39.2225 51.7251 39.086 51.4883 38.9704 51.2627L37.1905 52.1748ZM37.674 53.0142C37.8519 53.3203 38.053 53.6215 38.2763 53.9177L39.8735 52.7141C39.6948 52.4769 39.5384 52.242 39.4033 52.0095L37.674 53.0142ZM38.2763 53.9177C39.7525 55.8768 41.5088 57.4475 43.5445 58.6174L44.5411 56.8833C42.7519 55.8551 41.1963 54.4695 39.8735 52.7141L38.2763 53.9177ZM43.5445 58.6174C45.5657 59.779 47.7176 60.522 49.9943 60.842L50.2727 58.8615C48.2532 58.5777 46.3446 57.9198 44.5411 56.8833L43.5445 58.6174ZM49.9943 60.842C52.2562 61.1599 54.5266 61.0329 56.7985 60.466L56.3142 58.5255C54.2839 59.0322 52.2724 59.1425 50.2727 58.8615L49.9943 60.842ZM56.8014 60.4653C59.0722 59.8914 61.1928 58.8572 63.1596 57.3751L61.9559 55.7778C60.1885 57.1097 58.3081 58.0216 56.3114 58.5262L56.8014 60.4653Z" fill="white"/>
</g>
<defs>
<filter id="filter0_ii_751_88" x="0" y="0" width="107" height="95" filterUnits="userSpaceOnUse" color-interpolation-filters="sRGB">
<feFlood flood-opacity="0" result="BackgroundImageFix"/>
<feBlend mode="normal" in="SourceGraphic" in2="BackgroundImageFix" result="shape"/>
<feColorMatrix in="SourceAlpha" type="matrix" values="0 0 0 0 0 0 0 0 0 0 0 0 0 0 0 0 0 0 127 0" result="hardAlpha"/>
<feOffset dx="6" dy="6"/>
<feGaussianBlur stdDeviation="3"/>
<feComposite in2="hardAlpha" operator="arithmetic" k2="-1" k3="1"/>
<feColorMatrix type="matrix" values="0 0 0 0 0.705882 0 0 0 0 0.427451 0 0 0 0 0 0 0 0 0.5 0"/>
<feBlend mode="normal" in2="shape" result="effect1_innerShadow_751_88"/>
<feColorMatrix in="SourceAlpha" type="matrix" values="0 0 0 0 0 0 0 0 0 0 0 0 0 0 0 0 0 0 127 0" result="hardAlpha"/>
<feOffset dx="-6" dy="-6"/>
<feComposite in2="hardAlpha" operator="arithmetic" k2="-1" k3="1"/>
<feColorMatrix type="matrix" values="0 0 0 0 0.705882 0 0 0 0 0.427451 0 0 0 0 0 0 0 0 0.5 0"/>
<feBlend mode="normal" in2="effect1_innerShadow_751_88" result="effect2_innerShadow_751_88"/>
</filter>
</defs>
</svg>
