<svg width="79" height="75" viewBox="0 0 79 75" fill="none" xmlns="http://www.w3.org/2000/svg">
<g filter="url(#filter0_ii_1890_3819)">
<rect x="2.18457" y="2" width="74.6311" height="71" rx="35.5" fill="#ED950D" stroke="#C98239" stroke-width="4"/>
<path d="M13.9729 19.1211C17.974 8.72061 23.8409 10.7025 26.8623 12.6794C28.0102 13.4304 28.0106 15.1782 27.0254 16.2992C26.5358 16.8563 25.8721 17.173 25.1944 17.173L24.4463 17.173C23.6612 17.173 22.8791 17.4228 22.1911 17.8933L21.0759 18.656C19.6971 19.5989 18.5564 20.9352 17.7798 22.517L15.1034 27.9687C14.9709 28.2387 14.856 28.5183 14.7599 28.8051C13.4341 32.7591 10.5065 32.9133 11.1767 28.7971C11.5785 26.33 12.418 23.1626 13.9729 19.1211Z" fill="white"/>
<path d="M31.2148 32.755C31.4015 31.8683 31.7632 31.145 32.2998 30.585C32.8598 30.025 33.5482 29.745 34.3648 29.745C35.1348 29.745 35.7298 29.9317 36.1498 30.305C36.5698 30.6783 37.0365 31.2033 37.5498 31.88L39.7898 34.82L43.5348 29.745C44.8182 29.745 45.8332 29.9783 46.5798 30.445C47.3265 30.8883 47.6998 31.495 47.6998 32.265C47.6998 32.5683 47.6532 32.8483 47.5598 33.105C47.4898 33.3383 47.3732 33.5833 47.2098 33.84C47.0465 34.0967 46.8365 34.3883 46.5798 34.715C46.3232 35.0417 46.0198 35.4267 45.6698 35.87L43.3598 38.46L47.9448 44.515C47.8282 45.4017 47.4782 46.1017 46.8948 46.615C46.3115 47.1283 45.6115 47.385 44.7948 47.385C43.9082 47.3617 43.1965 47.105 42.6598 46.615C42.1465 46.125 41.6448 45.53 41.1548 44.83L39.2648 42.135L35.6948 47.28C35.5782 47.28 35.4498 47.28 35.3098 47.28C35.1698 47.3033 35.0532 47.315 34.9598 47.315C33.7698 47.315 32.8598 47.07 32.2298 46.58C31.6232 46.09 31.3198 45.4833 31.3198 44.76C31.3198 44.2 31.4482 43.71 31.7048 43.29C31.9848 42.8467 32.4515 42.2517 33.1048 41.505L35.9048 38.25L31.2148 32.755Z" fill="white"/>
<path d="M31.2148 32.755L30.2363 32.549L30.135 33.0302L30.4542 33.4042L31.2148 32.755ZM32.2998 30.585L31.5927 29.8779L31.5852 29.8854L31.5779 29.8931L32.2998 30.585ZM37.5498 31.88L36.7532 32.4844L36.7544 32.486L37.5498 31.88ZM39.7898 34.82L38.9944 35.426L39.8026 36.4868L40.5945 35.4138L39.7898 34.82ZM43.5348 29.745V28.745H43.03L42.7302 29.1512L43.5348 29.745ZM46.5798 30.445L46.0498 31.293L46.0595 31.299L46.0693 31.3049L46.5798 30.445ZM47.5598 33.105L46.6201 32.7633L46.6103 32.7902L46.602 32.8177L47.5598 33.105ZM45.6698 35.87L46.4161 36.5356L46.4361 36.5132L46.4547 36.4896L45.6698 35.87ZM43.3598 38.46L42.6135 37.7944L42.0662 38.4081L42.5626 39.0637L43.3598 38.46ZM47.9448 44.515L48.9363 44.6455L48.9898 44.2385L48.7421 43.9113L47.9448 44.515ZM46.8948 46.615L46.2342 45.8643L46.8948 46.615ZM44.7948 47.385L44.7685 48.3847L44.7817 48.385H44.7948V47.385ZM42.6598 46.615L41.9694 47.3384L41.9774 47.346L41.9856 47.3535L42.6598 46.615ZM41.1548 44.83L41.9741 44.2565L41.9736 44.2558L41.1548 44.83ZM39.2648 42.135L40.0836 41.5608L39.2605 40.3871L38.4433 41.5649L39.2648 42.135ZM35.6948 47.28V48.28H36.2181L36.5164 47.8501L35.6948 47.28ZM35.3098 47.28V46.28H35.2271L35.1454 46.2936L35.3098 47.28ZM32.2298 46.58L31.6015 47.3579L31.6087 47.3637L31.6159 47.3694L32.2298 46.58ZM31.7048 43.29L30.8594 42.756L30.8554 42.7622L30.8516 42.7686L31.7048 43.29ZM33.1048 41.505L33.8574 42.1635L33.8629 42.1571L33.1048 41.505ZM35.9048 38.25L36.6629 38.9021L37.2217 38.2525L36.6655 37.6008L35.9048 38.25ZM32.1934 32.961C32.3482 32.2258 32.6348 31.6807 33.0218 31.2769L31.5779 29.8931C30.8915 30.6093 30.4549 31.5108 30.2363 32.549L32.1934 32.961ZM33.007 31.2921C33.373 30.9261 33.8041 30.745 34.3648 30.745V28.745C33.2922 28.745 32.3467 29.1239 31.5927 29.8779L33.007 31.2921ZM34.3648 30.745C34.9811 30.745 35.3068 30.8936 35.4855 31.0524L36.8142 29.5576C36.1529 28.9697 35.2886 28.745 34.3648 28.745V30.745ZM35.4855 31.0524C35.8389 31.3666 36.2614 31.8361 36.7532 32.4844L38.3465 31.2756C37.8116 30.5705 37.3008 29.9901 36.8142 29.5576L35.4855 31.0524ZM36.7544 32.486L38.9944 35.426L40.5853 34.214L38.3453 31.274L36.7544 32.486ZM40.5945 35.4138L44.3395 30.3388L42.7302 29.1512L38.9852 34.2262L40.5945 35.4138ZM43.5348 30.745C44.7116 30.745 45.519 30.9612 46.0498 31.293L47.1098 29.597C46.1474 28.9955 44.9248 28.745 43.5348 28.745V30.745ZM46.0693 31.3049C46.5589 31.5956 46.6998 31.8987 46.6998 32.265H48.6998C48.6998 31.0913 48.0941 30.1811 47.0904 29.5851L46.0693 31.3049ZM46.6998 32.265C46.6998 32.4646 46.6694 32.6276 46.6201 32.7633L48.4996 33.4467C48.637 33.0691 48.6998 32.6721 48.6998 32.265H46.6998ZM46.602 32.8177C46.564 32.9443 46.4919 33.1056 46.3662 33.3031L48.0535 34.3769C48.2545 34.061 48.4157 33.7324 48.5177 33.3923L46.602 32.8177ZM46.3662 33.3031C46.2257 33.5239 46.0366 33.7878 45.7935 34.0972L47.3662 35.3328C47.6365 34.9888 47.8673 34.6694 48.0535 34.3769L46.3662 33.3031ZM45.7935 34.0972C45.5375 34.4231 45.2346 34.8074 44.885 35.2504L46.4547 36.4896C46.805 36.0459 47.1089 35.6603 47.3662 35.3328L45.7935 34.0972ZM44.9235 35.2044L42.6135 37.7944L44.1061 39.1256L46.4161 36.5356L44.9235 35.2044ZM42.5626 39.0637L47.1476 45.1187L48.7421 43.9113L44.1571 37.8563L42.5626 39.0637ZM46.9534 44.3845C46.8632 45.0697 46.6087 45.5348 46.2342 45.8643L47.5555 47.3657C48.3477 46.6686 48.7931 45.7336 48.9363 44.6455L46.9534 44.3845ZM46.2342 45.8643C45.8434 46.2082 45.3819 46.385 44.7948 46.385V48.385C45.8412 48.385 46.7797 48.0484 47.5555 47.3657L46.2342 45.8643ZM44.8212 46.3853C44.1196 46.3669 43.6563 46.1707 43.3341 45.8765L41.9856 47.3535C42.7368 48.0393 43.6968 48.3564 44.7685 48.3847L44.8212 46.3853ZM43.3503 45.8916C42.8932 45.4553 42.4336 44.913 41.9741 44.2565L40.3356 45.4035C40.8561 46.147 41.3998 46.7947 41.9694 47.3384L43.3503 45.8916ZM41.9736 44.2558L40.0836 41.5608L38.4461 42.7092L40.3361 45.4042L41.9736 44.2558ZM38.4433 41.5649L34.8733 46.7099L36.5164 47.8501L40.0864 42.7051L38.4433 41.5649ZM35.6948 46.28C35.6946 46.28 35.6944 46.28 35.6942 46.28C35.6939 46.28 35.6937 46.28 35.6935 46.28C35.6932 46.28 35.693 46.28 35.6928 46.28C35.6926 46.28 35.6923 46.28 35.6921 46.28C35.6919 46.28 35.6917 46.28 35.6914 46.28C35.6912 46.28 35.691 46.28 35.6907 46.28C35.6905 46.28 35.6903 46.28 35.6901 46.28C35.6898 46.28 35.6896 46.28 35.6894 46.28C35.6891 46.28 35.6889 46.28 35.6887 46.28C35.6885 46.28 35.6882 46.28 35.688 46.28C35.6878 46.28 35.6875 46.28 35.6873 46.28C35.6871 46.28 35.6869 46.28 35.6866 46.28C35.6864 46.28 35.6862 46.28 35.6859 46.28C35.6857 46.28 35.6855 46.28 35.6852 46.28C35.685 46.28 35.6848 46.28 35.6846 46.28C35.6843 46.28 35.6841 46.28 35.6839 46.28C35.6836 46.28 35.6834 46.28 35.6832 46.28C35.683 46.28 35.6827 46.28 35.6825 46.28C35.6823 46.28 35.682 46.28 35.6818 46.28C35.6816 46.28 35.6813 46.28 35.6811 46.28C35.6809 46.28 35.6807 46.28 35.6804 46.28C35.6802 46.28 35.68 46.28 35.6797 46.28C35.6795 46.28 35.6793 46.28 35.6791 46.28C35.6788 46.28 35.6786 46.28 35.6784 46.28C35.6781 46.28 35.6779 46.28 35.6777 46.28C35.6774 46.28 35.6772 46.28 35.677 46.28C35.6768 46.28 35.6765 46.28 35.6763 46.28C35.6761 46.28 35.6758 46.28 35.6756 46.28C35.6754 46.28 35.6751 46.28 35.6749 46.28C35.6747 46.28 35.6744 46.28 35.6742 46.28C35.674 46.28 35.6738 46.28 35.6735 46.28C35.6733 46.28 35.6731 46.28 35.6728 46.28C35.6726 46.28 35.6724 46.28 35.6721 46.28C35.6719 46.28 35.6717 46.28 35.6714 46.28C35.6712 46.28 35.671 46.28 35.6708 46.28C35.6705 46.28 35.6703 46.28 35.6701 46.28C35.6698 46.28 35.6696 46.28 35.6694 46.28C35.6691 46.28 35.6689 46.28 35.6687 46.28C35.6684 46.28 35.6682 46.28 35.668 46.28C35.6678 46.28 35.6675 46.28 35.6673 46.28C35.6671 46.28 35.6668 46.28 35.6666 46.28C35.6664 46.28 35.6661 46.28 35.6659 46.28C35.6657 46.28 35.6654 46.28 35.6652 46.28C35.665 46.28 35.6647 46.28 35.6645 46.28C35.6643 46.28 35.664 46.28 35.6638 46.28C35.6636 46.28 35.6633 46.28 35.6631 46.28C35.6629 46.28 35.6627 46.28 35.6624 46.28C35.6622 46.28 35.662 46.28 35.6617 46.28C35.6615 46.28 35.6613 46.28 35.661 46.28C35.6608 46.28 35.6606 46.28 35.6603 46.28C35.6601 46.28 35.6599 46.28 35.6596 46.28C35.6594 46.28 35.6592 46.28 35.6589 46.28C35.6587 46.28 35.6585 46.28 35.6582 46.28C35.658 46.28 35.6578 46.28 35.6575 46.28C35.6573 46.28 35.6571 46.28 35.6568 46.28C35.6566 46.28 35.6564 46.28 35.6561 46.28C35.6559 46.28 35.6557 46.28 35.6554 46.28C35.6552 46.28 35.655 46.28 35.6547 46.28C35.6545 46.28 35.6543 46.28 35.654 46.28C35.6538 46.28 35.6536 46.28 35.6533 46.28C35.6531 46.28 35.6529 46.28 35.6526 46.28C35.6524 46.28 35.6522 46.28 35.6519 46.28C35.6517 46.28 35.6515 46.28 35.6512 46.28C35.651 46.28 35.6508 46.28 35.6505 46.28C35.6503 46.28 35.6501 46.28 35.6498 46.28C35.6496 46.28 35.6494 46.28 35.6491 46.28C35.6489 46.28 35.6487 46.28 35.6484 46.28C35.6482 46.28 35.648 46.28 35.6477 46.28C35.6475 46.28 35.6473 46.28 35.647 46.28C35.6468 46.28 35.6466 46.28 35.6463 46.28C35.6461 46.28 35.6459 46.28 35.6456 46.28C35.6454 46.28 35.6452 46.28 35.6449 46.28C35.6447 46.28 35.6445 46.28 35.6442 46.28C35.644 46.28 35.6438 46.28 35.6435 46.28C35.6433 46.28 35.6431 46.28 35.6428 46.28C35.6426 46.28 35.6424 46.28 35.6421 46.28C35.6419 46.28 35.6417 46.28 35.6414 46.28C35.6412 46.28 35.6409 46.28 35.6407 46.28C35.6405 46.28 35.6402 46.28 35.64 46.28C35.6398 46.28 35.6395 46.28 35.6393 46.28C35.6391 46.28 35.6388 46.28 35.6386 46.28C35.6384 46.28 35.6381 46.28 35.6379 46.28C35.6377 46.28 35.6374 46.28 35.6372 46.28C35.637 46.28 35.6367 46.28 35.6365 46.28C35.6362 46.28 35.636 46.28 35.6358 46.28C35.6355 46.28 35.6353 46.28 35.6351 46.28C35.6348 46.28 35.6346 46.28 35.6344 46.28C35.6341 46.28 35.6339 46.28 35.6337 46.28C35.6334 46.28 35.6332 46.28 35.6329 46.28C35.6327 46.28 35.6325 46.28 35.6322 46.28C35.632 46.28 35.6318 46.28 35.6315 46.28C35.6313 46.28 35.6311 46.28 35.6308 46.28C35.6306 46.28 35.6304 46.28 35.6301 46.28C35.6299 46.28 35.6296 46.28 35.6294 46.28C35.6292 46.28 35.6289 46.28 35.6287 46.28C35.6285 46.28 35.6282 46.28 35.628 46.28C35.6278 46.28 35.6275 46.28 35.6273 46.28C35.627 46.28 35.6268 46.28 35.6266 46.28C35.6263 46.28 35.6261 46.28 35.6259 46.28C35.6256 46.28 35.6254 46.28 35.6251 46.28C35.6249 46.28 35.6247 46.28 35.6244 46.28C35.6242 46.28 35.624 46.28 35.6237 46.28C35.6235 46.28 35.6233 46.28 35.623 46.28C35.6228 46.28 35.6225 46.28 35.6223 46.28C35.6221 46.28 35.6218 46.28 35.6216 46.28C35.6214 46.28 35.6211 46.28 35.6209 46.28C35.6206 46.28 35.6204 46.28 35.6202 46.28C35.6199 46.28 35.6197 46.28 35.6195 46.28C35.6192 46.28 35.619 46.28 35.6187 46.28C35.6185 46.28 35.6183 46.28 35.618 46.28C35.6178 46.28 35.6176 46.28 35.6173 46.28C35.6171 46.28 35.6168 46.28 35.6166 46.28C35.6164 46.28 35.6161 46.28 35.6159 46.28C35.6157 46.28 35.6154 46.28 35.6152 46.28C35.6149 46.28 35.6147 46.28 35.6145 46.28C35.6142 46.28 35.614 46.28 35.6138 46.28C35.6135 46.28 35.6133 46.28 35.613 46.28C35.6128 46.28 35.6126 46.28 35.6123 46.28C35.6121 46.28 35.6118 46.28 35.6116 46.28C35.6114 46.28 35.6111 46.28 35.6109 46.28C35.6107 46.28 35.6104 46.28 35.6102 46.28C35.6099 46.28 35.6097 46.28 35.6095 46.28C35.6092 46.28 35.609 46.28 35.6087 46.28C35.6085 46.28 35.6083 46.28 35.608 46.28C35.6078 46.28 35.6075 46.28 35.6073 46.28C35.6071 46.28 35.6068 46.28 35.6066 46.28C35.6064 46.28 35.6061 46.28 35.6059 46.28C35.6056 46.28 35.6054 46.28 35.6052 46.28C35.6049 46.28 35.6047 46.28 35.6044 46.28C35.6042 46.28 35.604 46.28 35.6037 46.28C35.6035 46.28 35.6032 46.28 35.603 46.28C35.6028 46.28 35.6025 46.28 35.6023 46.28C35.602 46.28 35.6018 46.28 35.6016 46.28C35.6013 46.28 35.6011 46.28 35.6008 46.28C35.6006 46.28 35.6004 46.28 35.6001 46.28C35.5999 46.28 35.5996 46.28 35.5994 46.28C35.5992 46.28 35.5989 46.28 35.5987 46.28C35.5984 46.28 35.5982 46.28 35.598 46.28C35.5977 46.28 35.5975 46.28 35.5972 46.28C35.597 46.28 35.5968 46.28 35.5965 46.28C35.5963 46.28 35.596 46.28 35.5958 46.28C35.5956 46.28 35.5953 46.28 35.5951 46.28C35.5948 46.28 35.5946 46.28 35.5944 46.28C35.5941 46.28 35.5939 46.28 35.5936 46.28C35.5934 46.28 35.5932 46.28 35.5929 46.28C35.5927 46.28 35.5924 46.28 35.5922 46.28C35.592 46.28 35.5917 46.28 35.5915 46.28C35.5912 46.28 35.591 46.28 35.5907 46.28C35.5905 46.28 35.5903 46.28 35.59 46.28C35.5898 46.28 35.5895 46.28 35.5893 46.28C35.5891 46.28 35.5888 46.28 35.5886 46.28C35.5883 46.28 35.5881 46.28 35.5879 46.28C35.5876 46.28 35.5874 46.28 35.5871 46.28C35.5869 46.28 35.5866 46.28 35.5864 46.28C35.5862 46.28 35.5859 46.28 35.5857 46.28C35.5854 46.28 35.5852 46.28 35.585 46.28C35.5847 46.28 35.5845 46.28 35.5842 46.28C35.584 46.28 35.5837 46.28 35.5835 46.28C35.5833 46.28 35.583 46.28 35.5828 46.28C35.5825 46.28 35.5823 46.28 35.5821 46.28C35.5818 46.28 35.5816 46.28 35.5813 46.28C35.5811 46.28 35.5808 46.28 35.5806 46.28C35.5804 46.28 35.5801 46.28 35.5799 46.28C35.5796 46.28 35.5794 46.28 35.5791 46.28C35.5789 46.28 35.5787 46.28 35.5784 46.28C35.5782 46.28 35.5779 46.28 35.5777 46.28C35.5774 46.28 35.5772 46.28 35.577 46.28C35.5767 46.28 35.5765 46.28 35.5762 46.28C35.576 46.28 35.5757 46.28 35.5755 46.28C35.5753 46.28 35.575 46.28 35.5748 46.28C35.5745 46.28 35.5743 46.28 35.574 46.28C35.5738 46.28 35.5736 46.28 35.5733 46.28C35.5731 46.28 35.5728 46.28 35.5726 46.28C35.5723 46.28 35.5721 46.28 35.5719 46.28C35.5716 46.28 35.5714 46.28 35.5711 46.28C35.5709 46.28 35.5706 46.28 35.5704 46.28C35.5702 46.28 35.5699 46.28 35.5697 46.28C35.5694 46.28 35.5692 46.28 35.5689 46.28C35.5687 46.28 35.5684 46.28 35.5682 46.28C35.568 46.28 35.5677 46.28 35.5675 46.28C35.5672 46.28 35.567 46.28 35.5667 46.28C35.5665 46.28 35.5662 46.28 35.566 46.28C35.5658 46.28 35.5655 46.28 35.5653 46.28C35.565 46.28 35.5648 46.28 35.5645 46.28C35.5643 46.28 35.5641 46.28 35.5638 46.28C35.5636 46.28 35.5633 46.28 35.5631 46.28C35.5628 46.28 35.5626 46.28 35.5623 46.28C35.5621 46.28 35.5619 46.28 35.5616 46.28C35.5614 46.28 35.5611 46.28 35.5609 46.28C35.5606 46.28 35.5604 46.28 35.5601 46.28C35.5599 46.28 35.5597 46.28 35.5594 46.28C35.5592 46.28 35.5589 46.28 35.5587 46.28C35.5584 46.28 35.5582 46.28 35.5579 46.28C35.5577 46.28 35.5574 46.28 35.5572 46.28C35.557 46.28 35.5567 46.28 35.5565 46.28C35.5562 46.28 35.556 46.28 35.5557 46.28C35.5555 46.28 35.5552 46.28 35.555 46.28C35.5547 46.28 35.5545 46.28 35.5543 46.28C35.554 46.28 35.5538 46.28 35.5535 46.28C35.5533 46.28 35.553 46.28 35.5528 46.28C35.5525 46.28 35.5523 46.28 35.552 46.28C35.5518 46.28 35.5516 46.28 35.5513 46.28C35.5511 46.28 35.5508 46.28 35.5506 46.28C35.5503 46.28 35.5501 46.28 35.5498 46.28C35.5496 46.28 35.5493 46.28 35.5491 46.28C35.5489 46.28 35.5486 46.28 35.5484 46.28C35.5481 46.28 35.5479 46.28 35.5476 46.28C35.5474 46.28 35.5471 46.28 35.5469 46.28C35.5466 46.28 35.5464 46.28 35.5461 46.28C35.5459 46.28 35.5456 46.28 35.5454 46.28C35.5452 46.28 35.5449 46.28 35.5447 46.28C35.5444 46.28 35.5442 46.28 35.5439 46.28C35.5437 46.28 35.5434 46.28 35.5432 46.28C35.5429 46.28 35.5427 46.28 35.5424 46.28C35.5422 46.28 35.5419 46.28 35.5417 46.28C35.5415 46.28 35.5412 46.28 35.541 46.28C35.5407 46.28 35.5405 46.28 35.5402 46.28C35.54 46.28 35.5397 46.28 35.5395 46.28C35.5392 46.28 35.539 46.28 35.5387 46.28C35.5385 46.28 35.5382 46.28 35.538 46.28C35.5377 46.28 35.5375 46.28 35.5373 46.28C35.537 46.28 35.5368 46.28 35.5365 46.28C35.5363 46.28 35.536 46.28 35.5358 46.28C35.5355 46.28 35.5353 46.28 35.535 46.28C35.5348 46.28 35.5345 46.28 35.5343 46.28C35.534 46.28 35.5338 46.28 35.5335 46.28C35.5333 46.28 35.533 46.28 35.5328 46.28C35.5325 46.28 35.5323 46.28 35.532 46.28C35.5318 46.28 35.5315 46.28 35.5313 46.28C35.5311 46.28 35.5308 46.28 35.5306 46.28C35.5303 46.28 35.5301 46.28 35.5298 46.28C35.5296 46.28 35.5293 46.28 35.5291 46.28C35.5288 46.28 35.5286 46.28 35.5283 46.28C35.5281 46.28 35.5278 46.28 35.5276 46.28C35.5273 46.28 35.5271 46.28 35.5268 46.28C35.5266 46.28 35.5263 46.28 35.5261 46.28C35.5258 46.28 35.5256 46.28 35.5253 46.28C35.5251 46.28 35.5248 46.28 35.5246 46.28C35.5243 46.28 35.5241 46.28 35.5238 46.28C35.5236 46.28 35.5233 46.28 35.5231 46.28C35.5228 46.28 35.5226 46.28 35.5223 46.28C35.5221 46.28 35.5218 46.28 35.5216 46.28C35.5213 46.28 35.5211 46.28 35.5208 46.28C35.5206 46.28 35.5203 46.28 35.5201 46.28C35.5198 46.28 35.5196 46.28 35.5193 46.28C35.5191 46.28 35.5188 46.28 35.5186 46.28C35.5183 46.28 35.5181 46.28 35.5178 46.28C35.5176 46.28 35.5173 46.28 35.5171 46.28C35.5168 46.28 35.5166 46.28 35.5163 46.28C35.5161 46.28 35.5159 46.28 35.5156 46.28C35.5154 46.28 35.5151 46.28 35.5149 46.28C35.5146 46.28 35.5144 46.28 35.5141 46.28C35.5139 46.28 35.5136 46.28 35.5133 46.28C35.5131 46.28 35.5128 46.28 35.5126 46.28C35.5123 46.28 35.5121 46.28 35.5118 46.28C35.5116 46.28 35.5113 46.28 35.5111 46.28C35.5108 46.28 35.5106 46.28 35.5103 46.28C35.5101 46.28 35.5098 46.28 35.5096 46.28C35.5093 46.28 35.5091 46.28 35.5088 46.28C35.5086 46.28 35.5083 46.28 35.5081 46.28C35.5078 46.28 35.5076 46.28 35.5073 46.28C35.5071 46.28 35.5068 46.28 35.5066 46.28C35.5063 46.28 35.5061 46.28 35.5058 46.28C35.5056 46.28 35.5053 46.28 35.5051 46.28C35.5048 46.28 35.5046 46.28 35.5043 46.28C35.5041 46.28 35.5038 46.28 35.5036 46.28C35.5033 46.28 35.5031 46.28 35.5028 46.28C35.5026 46.28 35.5023 46.28 35.5021 46.28C35.5018 46.28 35.5015 46.28 35.5013 46.28C35.501 46.28 35.5008 46.28 35.5005 46.28C35.5003 46.28 35.5 46.28 35.4998 46.28C35.4995 46.28 35.4993 46.28 35.499 46.28C35.4988 46.28 35.4985 46.28 35.4983 46.28C35.498 46.28 35.4978 46.28 35.4975 46.28C35.4973 46.28 35.497 46.28 35.4968 46.28C35.4965 46.28 35.4963 46.28 35.496 46.28C35.4958 46.28 35.4955 46.28 35.4952 46.28C35.495 46.28 35.4947 46.28 35.4945 46.28C35.4942 46.28 35.494 46.28 35.4937 46.28C35.4935 46.28 35.4932 46.28 35.493 46.28C35.4927 46.28 35.4925 46.28 35.4922 46.28C35.492 46.28 35.4917 46.28 35.4915 46.28C35.4912 46.28 35.4909 46.28 35.4907 46.28C35.4904 46.28 35.4902 46.28 35.4899 46.28C35.4897 46.28 35.4894 46.28 35.4892 46.28C35.4889 46.28 35.4887 46.28 35.4884 46.28C35.4882 46.28 35.4879 46.28 35.4877 46.28C35.4874 46.28 35.4871 46.28 35.4869 46.28C35.4866 46.28 35.4864 46.28 35.4861 46.28C35.4859 46.28 35.4856 46.28 35.4854 46.28C35.4851 46.28 35.4849 46.28 35.4846 46.28C35.4844 46.28 35.4841 46.28 35.4839 46.28C35.4836 46.28 35.4833 46.28 35.4831 46.28C35.4828 46.28 35.4826 46.28 35.4823 46.28C35.4821 46.28 35.4818 46.28 35.4816 46.28C35.4813 46.28 35.4811 46.28 35.4808 46.28C35.4805 46.28 35.4803 46.28 35.48 46.28C35.4798 46.28 35.4795 46.28 35.4793 46.28C35.479 46.28 35.4788 46.28 35.4785 46.28C35.4783 46.28 35.478 46.28 35.4777 46.28C35.4775 46.28 35.4772 46.28 35.477 46.28C35.4767 46.28 35.4765 46.28 35.4762 46.28C35.476 46.28 35.4757 46.28 35.4755 46.28C35.4752 46.28 35.4749 46.28 35.4747 46.28C35.4744 46.28 35.4742 46.28 35.4739 46.28C35.4737 46.28 35.4734 46.28 35.4732 46.28C35.4729 46.28 35.4727 46.28 35.4724 46.28C35.4721 46.28 35.4719 46.28 35.4716 46.28C35.4714 46.28 35.4711 46.28 35.4709 46.28C35.4706 46.28 35.4704 46.28 35.4701 46.28C35.4698 46.28 35.4696 46.28 35.4693 46.28C35.4691 46.28 35.4688 46.28 35.4686 46.28C35.4683 46.28 35.4681 46.28 35.4678 46.28C35.4675 46.28 35.4673 46.28 35.467 46.28C35.4668 46.28 35.4665 46.28 35.4663 46.28C35.466 46.28 35.4658 46.28 35.4655 46.28C35.4652 46.28 35.465 46.28 35.4647 46.28C35.4645 46.28 35.4642 46.28 35.464 46.28C35.4637 46.28 35.4634 46.28 35.4632 46.28C35.4629 46.28 35.4627 46.28 35.4624 46.28C35.4622 46.28 35.4619 46.28 35.4617 46.28C35.4614 46.28 35.4611 46.28 35.4609 46.28C35.4606 46.28 35.4604 46.28 35.4601 46.28C35.4599 46.28 35.4596 46.28 35.4593 46.28C35.4591 46.28 35.4588 46.28 35.4586 46.28C35.4583 46.28 35.4581 46.28 35.4578 46.28C35.4575 46.28 35.4573 46.28 35.457 46.28C35.4568 46.28 35.4565 46.28 35.4563 46.28C35.456 46.28 35.4557 46.28 35.4555 46.28C35.4552 46.28 35.455 46.28 35.4547 46.28C35.4545 46.28 35.4542 46.28 35.4539 46.28C35.4537 46.28 35.4534 46.28 35.4532 46.28C35.4529 46.28 35.4527 46.28 35.4524 46.28C35.4521 46.28 35.4519 46.28 35.4516 46.28C35.4514 46.28 35.4511 46.28 35.4509 46.28C35.4506 46.28 35.4503 46.28 35.4501 46.28C35.4498 46.28 35.4496 46.28 35.4493 46.28C35.4491 46.28 35.4488 46.28 35.4485 46.28C35.4483 46.28 35.448 46.28 35.4478 46.28C35.4475 46.28 35.4472 46.28 35.447 46.28C35.4467 46.28 35.4465 46.28 35.4462 46.28C35.446 46.28 35.4457 46.28 35.4454 46.28C35.4452 46.28 35.4449 46.28 35.4447 46.28C35.4444 46.28 35.4441 46.28 35.4439 46.28C35.4436 46.28 35.4434 46.28 35.4431 46.28C35.4429 46.28 35.4426 46.28 35.4423 46.28C35.4421 46.28 35.4418 46.28 35.4416 46.28C35.4413 46.28 35.441 46.28 35.4408 46.28C35.4405 46.28 35.4403 46.28 35.44 46.28C35.4397 46.28 35.4395 46.28 35.4392 46.28C35.439 46.28 35.4387 46.28 35.4385 46.28C35.4382 46.28 35.4379 46.28 35.4377 46.28C35.4374 46.28 35.4372 46.28 35.4369 46.28C35.4366 46.28 35.4364 46.28 35.4361 46.28C35.4359 46.28 35.4356 46.28 35.4353 46.28C35.4351 46.28 35.4348 46.28 35.4346 46.28C35.4343 46.28 35.434 46.28 35.4338 46.28C35.4335 46.28 35.4333 46.28 35.433 46.28C35.4327 46.28 35.4325 46.28 35.4322 46.28C35.432 46.28 35.4317 46.28 35.4314 46.28C35.4312 46.28 35.4309 46.28 35.4307 46.28C35.4304 46.28 35.4301 46.28 35.4299 46.28C35.4296 46.28 35.4294 46.28 35.4291 46.28C35.4288 46.28 35.4286 46.28 35.4283 46.28C35.4281 46.28 35.4278 46.28 35.4275 46.28C35.4273 46.28 35.427 46.28 35.4268 46.28C35.4265 46.28 35.4262 46.28 35.426 46.28C35.4257 46.28 35.4255 46.28 35.4252 46.28C35.4249 46.28 35.4247 46.28 35.4244 46.28C35.4242 46.28 35.4239 46.28 35.4236 46.28C35.4234 46.28 35.4231 46.28 35.4229 46.28C35.4226 46.28 35.4223 46.28 35.4221 46.28C35.4218 46.28 35.4215 46.28 35.4213 46.28C35.421 46.28 35.4208 46.28 35.4205 46.28C35.4202 46.28 35.42 46.28 35.4197 46.28C35.4195 46.28 35.4192 46.28 35.4189 46.28C35.4187 46.28 35.4184 46.28 35.4182 46.28C35.4179 46.28 35.4176 46.28 35.4174 46.28C35.4171 46.28 35.4168 46.28 35.4166 46.28C35.4163 46.28 35.4161 46.28 35.4158 46.28C35.4155 46.28 35.4153 46.28 35.415 46.28C35.4148 46.28 35.4145 46.28 35.4142 46.28C35.414 46.28 35.4137 46.28 35.4134 46.28C35.4132 46.28 35.4129 46.28 35.4127 46.28C35.4124 46.28 35.4121 46.28 35.4119 46.28C35.4116 46.28 35.4113 46.28 35.4111 46.28C35.4108 46.28 35.4106 46.28 35.4103 46.28C35.41 46.28 35.4098 46.28 35.4095 46.28C35.4092 46.28 35.409 46.28 35.4087 46.28C35.4085 46.28 35.4082 46.28 35.4079 46.28C35.4077 46.28 35.4074 46.28 35.4071 46.28C35.4069 46.28 35.4066 46.28 35.4064 46.28C35.4061 46.28 35.4058 46.28 35.4056 46.28C35.4053 46.28 35.405 46.28 35.4048 46.28C35.4045 46.28 35.4043 46.28 35.404 46.28C35.4037 46.28 35.4035 46.28 35.4032 46.28C35.4029 46.28 35.4027 46.28 35.4024 46.28C35.4021 46.28 35.4019 46.28 35.4016 46.28C35.4014 46.28 35.4011 46.28 35.4008 46.28C35.4006 46.28 35.4003 46.28 35.4 46.28C35.3998 46.28 35.3995 46.28 35.3993 46.28C35.399 46.28 35.3987 46.28 35.3985 46.28C35.3982 46.28 35.3979 46.28 35.3977 46.28C35.3974 46.28 35.3971 46.28 35.3969 46.28C35.3966 46.28 35.3964 46.28 35.3961 46.28C35.3958 46.28 35.3956 46.28 35.3953 46.28C35.395 46.28 35.3948 46.28 35.3945 46.28C35.3942 46.28 35.394 46.28 35.3937 46.28C35.3934 46.28 35.3932 46.28 35.3929 46.28C35.3927 46.28 35.3924 46.28 35.3921 46.28C35.3919 46.28 35.3916 46.28 35.3913 46.28C35.3911 46.28 35.3908 46.28 35.3905 46.28C35.3903 46.28 35.39 46.28 35.3897 46.28C35.3895 46.28 35.3892 46.28 35.389 46.28C35.3887 46.28 35.3884 46.28 35.3882 46.28C35.3879 46.28 35.3876 46.28 35.3874 46.28C35.3871 46.28 35.3868 46.28 35.3866 46.28C35.3863 46.28 35.386 46.28 35.3858 46.28C35.3855 46.28 35.3852 46.28 35.385 46.28C35.3847 46.28 35.3844 46.28 35.3842 46.28C35.3839 46.28 35.3837 46.28 35.3834 46.28C35.3831 46.28 35.3829 46.28 35.3826 46.28C35.3823 46.28 35.3821 46.28 35.3818 46.28C35.3815 46.28 35.3813 46.28 35.381 46.28C35.3807 46.28 35.3805 46.28 35.3802 46.28C35.3799 46.28 35.3797 46.28 35.3794 46.28C35.3791 46.28 35.3789 46.28 35.3786 46.28C35.3783 46.28 35.3781 46.28 35.3778 46.28C35.3775 46.28 35.3773 46.28 35.377 46.28C35.3767 46.28 35.3765 46.28 35.3762 46.28C35.3759 46.28 35.3757 46.28 35.3754 46.28C35.3751 46.28 35.3749 46.28 35.3746 46.28C35.3743 46.28 35.3741 46.28 35.3738 46.28C35.3736 46.28 35.3733 46.28 35.373 46.28C35.3727 46.28 35.3725 46.28 35.3722 46.28C35.3719 46.28 35.3717 46.28 35.3714 46.28C35.3712 46.28 35.3709 46.28 35.3706 46.28C35.3703 46.28 35.3701 46.28 35.3698 46.28C35.3695 46.28 35.3693 46.28 35.369 46.28C35.3687 46.28 35.3685 46.28 35.3682 46.28C35.3679 46.28 35.3677 46.28 35.3674 46.28C35.3671 46.28 35.3669 46.28 35.3666 46.28C35.3663 46.28 35.3661 46.28 35.3658 46.28C35.3655 46.28 35.3653 46.28 35.365 46.28C35.3647 46.28 35.3645 46.28 35.3642 46.28C35.3639 46.28 35.3637 46.28 35.3634 46.28C35.3631 46.28 35.3629 46.28 35.3626 46.28C35.3623 46.28 35.3621 46.28 35.3618 46.28C35.3615 46.28 35.3613 46.28 35.361 46.28C35.3607 46.28 35.3605 46.28 35.3602 46.28C35.3599 46.28 35.3597 46.28 35.3594 46.28C35.3591 46.28 35.3588 46.28 35.3586 46.28C35.3583 46.28 35.358 46.28 35.3578 46.28C35.3575 46.28 35.3572 46.28 35.357 46.28C35.3567 46.28 35.3564 46.28 35.3562 46.28C35.3559 46.28 35.3556 46.28 35.3554 46.28C35.3551 46.28 35.3548 46.28 35.3546 46.28C35.3543 46.28 35.354 46.28 35.3538 46.28C35.3535 46.28 35.3532 46.28 35.3529 46.28C35.3527 46.28 35.3524 46.28 35.3521 46.28C35.3519 46.28 35.3516 46.28 35.3513 46.28C35.3511 46.28 35.3508 46.28 35.3505 46.28C35.3503 46.28 35.35 46.28 35.3497 46.28C35.3494 46.28 35.3492 46.28 35.3489 46.28C35.3486 46.28 35.3484 46.28 35.3481 46.28C35.3478 46.28 35.3476 46.28 35.3473 46.28C35.347 46.28 35.3468 46.28 35.3465 46.28C35.3462 46.28 35.3459 46.28 35.3457 46.28C35.3454 46.28 35.3451 46.28 35.3449 46.28C35.3446 46.28 35.3443 46.28 35.3441 46.28C35.3438 46.28 35.3435 46.28 35.3433 46.28C35.343 46.28 35.3427 46.28 35.3424 46.28C35.3422 46.28 35.3419 46.28 35.3416 46.28C35.3414 46.28 35.3411 46.28 35.3408 46.28C35.3406 46.28 35.3403 46.28 35.34 46.28C35.3397 46.28 35.3395 46.28 35.3392 46.28C35.3389 46.28 35.3387 46.28 35.3384 46.28C35.3381 46.28 35.3379 46.28 35.3376 46.28C35.3373 46.28 35.337 46.28 35.3368 46.28C35.3365 46.28 35.3362 46.28 35.336 46.28C35.3357 46.28 35.3354 46.28 35.3351 46.28C35.3349 46.28 35.3346 46.28 35.3343 46.28C35.3341 46.28 35.3338 46.28 35.3335 46.28C35.3332 46.28 35.333 46.28 35.3327 46.28C35.3324 46.28 35.3322 46.28 35.3319 46.28C35.3316 46.28 35.3314 46.28 35.3311 46.28C35.3308 46.28 35.3305 46.28 35.3303 46.28C35.33 46.28 35.3297 46.28 35.3295 46.28C35.3292 46.28 35.3289 46.28 35.3286 46.28C35.3284 46.28 35.3281 46.28 35.3278 46.28C35.3276 46.28 35.3273 46.28 35.327 46.28C35.3267 46.28 35.3265 46.28 35.3262 46.28C35.3259 46.28 35.3257 46.28 35.3254 46.28C35.3251 46.28 35.3248 46.28 35.3246 46.28C35.3243 46.28 35.324 46.28 35.3237 46.28C35.3235 46.28 35.3232 46.28 35.3229 46.28C35.3227 46.28 35.3224 46.28 35.3221 46.28C35.3218 46.28 35.3216 46.28 35.3213 46.28C35.321 46.28 35.3208 46.28 35.3205 46.28C35.3202 46.28 35.3199 46.28 35.3197 46.28C35.3194 46.28 35.3191 46.28 35.3189 46.28C35.3186 46.28 35.3183 46.28 35.318 46.28C35.3178 46.28 35.3175 46.28 35.3172 46.28C35.3169 46.28 35.3167 46.28 35.3164 46.28C35.3161 46.28 35.3159 46.28 35.3156 46.28C35.3153 46.28 35.315 46.28 35.3148 46.28C35.3145 46.28 35.3142 46.28 35.3139 46.28C35.3137 46.28 35.3134 46.28 35.3131 46.28C35.3129 46.28 35.3126 46.28 35.3123 46.28C35.312 46.28 35.3118 46.28 35.3115 46.28C35.3112 46.28 35.3109 46.28 35.3107 46.28C35.3104 46.28 35.3101 46.28 35.3098 46.28V48.28C35.3101 48.28 35.3104 48.28 35.3107 48.28C35.3109 48.28 35.3112 48.28 35.3115 48.28C35.3118 48.28 35.312 48.28 35.3123 48.28C35.3126 48.28 35.3129 48.28 35.3131 48.28C35.3134 48.28 35.3137 48.28 35.3139 48.28C35.3142 48.28 35.3145 48.28 35.3148 48.28C35.315 48.28 35.3153 48.28 35.3156 48.28C35.3159 48.28 35.3161 48.28 35.3164 48.28C35.3167 48.28 35.3169 48.28 35.3172 48.28C35.3175 48.28 35.3178 48.28 35.318 48.28C35.3183 48.28 35.3186 48.28 35.3189 48.28C35.3191 48.28 35.3194 48.28 35.3197 48.28C35.3199 48.28 35.3202 48.28 35.3205 48.28C35.3208 48.28 35.321 48.28 35.3213 48.28C35.3216 48.28 35.3218 48.28 35.3221 48.28C35.3224 48.28 35.3227 48.28 35.3229 48.28C35.3232 48.28 35.3235 48.28 35.3237 48.28C35.324 48.28 35.3243 48.28 35.3246 48.28C35.3248 48.28 35.3251 48.28 35.3254 48.28C35.3257 48.28 35.3259 48.28 35.3262 48.28C35.3265 48.28 35.3267 48.28 35.327 48.28C35.3273 48.28 35.3276 48.28 35.3278 48.28C35.3281 48.28 35.3284 48.28 35.3286 48.28C35.3289 48.28 35.3292 48.28 35.3295 48.28C35.3297 48.28 35.33 48.28 35.3303 48.28C35.3305 48.28 35.3308 48.28 35.3311 48.28C35.3314 48.28 35.3316 48.28 35.3319 48.28C35.3322 48.28 35.3324 48.28 35.3327 48.28C35.333 48.28 35.3332 48.28 35.3335 48.28C35.3338 48.28 35.3341 48.28 35.3343 48.28C35.3346 48.28 35.3349 48.28 35.3351 48.28C35.3354 48.28 35.3357 48.28 35.336 48.28C35.3362 48.28 35.3365 48.28 35.3368 48.28C35.337 48.28 35.3373 48.28 35.3376 48.28C35.3379 48.28 35.3381 48.28 35.3384 48.28C35.3387 48.28 35.3389 48.28 35.3392 48.28C35.3395 48.28 35.3397 48.28 35.34 48.28C35.3403 48.28 35.3406 48.28 35.3408 48.28C35.3411 48.28 35.3414 48.28 35.3416 48.28C35.3419 48.28 35.3422 48.28 35.3424 48.28C35.3427 48.28 35.343 48.28 35.3433 48.28C35.3435 48.28 35.3438 48.28 35.3441 48.28C35.3443 48.28 35.3446 48.28 35.3449 48.28C35.3451 48.28 35.3454 48.28 35.3457 48.28C35.3459 48.28 35.3462 48.28 35.3465 48.28C35.3468 48.28 35.347 48.28 35.3473 48.28C35.3476 48.28 35.3478 48.28 35.3481 48.28C35.3484 48.28 35.3486 48.28 35.3489 48.28C35.3492 48.28 35.3494 48.28 35.3497 48.28C35.35 48.28 35.3503 48.28 35.3505 48.28C35.3508 48.28 35.3511 48.28 35.3513 48.28C35.3516 48.28 35.3519 48.28 35.3521 48.28C35.3524 48.28 35.3527 48.28 35.3529 48.28C35.3532 48.28 35.3535 48.28 35.3538 48.28C35.354 48.28 35.3543 48.28 35.3546 48.28C35.3548 48.28 35.3551 48.28 35.3554 48.28C35.3556 48.28 35.3559 48.28 35.3562 48.28C35.3564 48.28 35.3567 48.28 35.357 48.28C35.3572 48.28 35.3575 48.28 35.3578 48.28C35.358 48.28 35.3583 48.28 35.3586 48.28C35.3588 48.28 35.3591 48.28 35.3594 48.28C35.3597 48.28 35.3599 48.28 35.3602 48.28C35.3605 48.28 35.3607 48.28 35.361 48.28C35.3613 48.28 35.3615 48.28 35.3618 48.28C35.3621 48.28 35.3623 48.28 35.3626 48.28C35.3629 48.28 35.3631 48.28 35.3634 48.28C35.3637 48.28 35.3639 48.28 35.3642 48.28C35.3645 48.28 35.3647 48.28 35.365 48.28C35.3653 48.28 35.3655 48.28 35.3658 48.28C35.3661 48.28 35.3663 48.28 35.3666 48.28C35.3669 48.28 35.3671 48.28 35.3674 48.28C35.3677 48.28 35.3679 48.28 35.3682 48.28C35.3685 48.28 35.3687 48.28 35.369 48.28C35.3693 48.28 35.3695 48.28 35.3698 48.28C35.3701 48.28 35.3703 48.28 35.3706 48.28C35.3709 48.28 35.3712 48.28 35.3714 48.28C35.3717 48.28 35.3719 48.28 35.3722 48.28C35.3725 48.28 35.3727 48.28 35.373 48.28C35.3733 48.28 35.3736 48.28 35.3738 48.28C35.3741 48.28 35.3743 48.28 35.3746 48.28C35.3749 48.28 35.3751 48.28 35.3754 48.28C35.3757 48.28 35.3759 48.28 35.3762 48.28C35.3765 48.28 35.3767 48.28 35.377 48.28C35.3773 48.28 35.3775 48.28 35.3778 48.28C35.3781 48.28 35.3783 48.28 35.3786 48.28C35.3789 48.28 35.3791 48.28 35.3794 48.28C35.3797 48.28 35.3799 48.28 35.3802 48.28C35.3805 48.28 35.3807 48.28 35.381 48.28C35.3813 48.28 35.3815 48.28 35.3818 48.28C35.3821 48.28 35.3823 48.28 35.3826 48.28C35.3829 48.28 35.3831 48.28 35.3834 48.28C35.3837 48.28 35.3839 48.28 35.3842 48.28C35.3844 48.28 35.3847 48.28 35.385 48.28C35.3852 48.28 35.3855 48.28 35.3858 48.28C35.386 48.28 35.3863 48.28 35.3866 48.28C35.3868 48.28 35.3871 48.28 35.3874 48.28C35.3876 48.28 35.3879 48.28 35.3882 48.28C35.3884 48.28 35.3887 48.28 35.389 48.28C35.3892 48.28 35.3895 48.28 35.3897 48.28C35.39 48.28 35.3903 48.28 35.3905 48.28C35.3908 48.28 35.3911 48.28 35.3913 48.28C35.3916 48.28 35.3919 48.28 35.3921 48.28C35.3924 48.28 35.3927 48.28 35.3929 48.28C35.3932 48.28 35.3934 48.28 35.3937 48.28C35.394 48.28 35.3942 48.28 35.3945 48.28C35.3948 48.28 35.395 48.28 35.3953 48.28C35.3956 48.28 35.3958 48.28 35.3961 48.28C35.3964 48.28 35.3966 48.28 35.3969 48.28C35.3971 48.28 35.3974 48.28 35.3977 48.28C35.3979 48.28 35.3982 48.28 35.3985 48.28C35.3987 48.28 35.399 48.28 35.3993 48.28C35.3995 48.28 35.3998 48.28 35.4 48.28C35.4003 48.28 35.4006 48.28 35.4008 48.28C35.4011 48.28 35.4014 48.28 35.4016 48.28C35.4019 48.28 35.4021 48.28 35.4024 48.28C35.4027 48.28 35.4029 48.28 35.4032 48.28C35.4035 48.28 35.4037 48.28 35.404 48.28C35.4043 48.28 35.4045 48.28 35.4048 48.28C35.405 48.28 35.4053 48.28 35.4056 48.28C35.4058 48.28 35.4061 48.28 35.4064 48.28C35.4066 48.28 35.4069 48.28 35.4071 48.28C35.4074 48.28 35.4077 48.28 35.4079 48.28C35.4082 48.28 35.4085 48.28 35.4087 48.28C35.409 48.28 35.4092 48.28 35.4095 48.28C35.4098 48.28 35.41 48.28 35.4103 48.28C35.4106 48.28 35.4108 48.28 35.4111 48.28C35.4113 48.28 35.4116 48.28 35.4119 48.28C35.4121 48.28 35.4124 48.28 35.4127 48.28C35.4129 48.28 35.4132 48.28 35.4134 48.28C35.4137 48.28 35.414 48.28 35.4142 48.28C35.4145 48.28 35.4148 48.28 35.415 48.28C35.4153 48.28 35.4155 48.28 35.4158 48.28C35.4161 48.28 35.4163 48.28 35.4166 48.28C35.4168 48.28 35.4171 48.28 35.4174 48.28C35.4176 48.28 35.4179 48.28 35.4182 48.28C35.4184 48.28 35.4187 48.28 35.4189 48.28C35.4192 48.28 35.4195 48.28 35.4197 48.28C35.42 48.28 35.4202 48.28 35.4205 48.28C35.4208 48.28 35.421 48.28 35.4213 48.28C35.4215 48.28 35.4218 48.28 35.4221 48.28C35.4223 48.28 35.4226 48.28 35.4229 48.28C35.4231 48.28 35.4234 48.28 35.4236 48.28C35.4239 48.28 35.4242 48.28 35.4244 48.28C35.4247 48.28 35.4249 48.28 35.4252 48.28C35.4255 48.28 35.4257 48.28 35.426 48.28C35.4262 48.28 35.4265 48.28 35.4268 48.28C35.427 48.28 35.4273 48.28 35.4275 48.28C35.4278 48.28 35.4281 48.28 35.4283 48.28C35.4286 48.28 35.4288 48.28 35.4291 48.28C35.4294 48.28 35.4296 48.28 35.4299 48.28C35.4301 48.28 35.4304 48.28 35.4307 48.28C35.4309 48.28 35.4312 48.28 35.4314 48.28C35.4317 48.28 35.432 48.28 35.4322 48.28C35.4325 48.28 35.4327 48.28 35.433 48.28C35.4333 48.28 35.4335 48.28 35.4338 48.28C35.434 48.28 35.4343 48.28 35.4346 48.28C35.4348 48.28 35.4351 48.28 35.4353 48.28C35.4356 48.28 35.4359 48.28 35.4361 48.28C35.4364 48.28 35.4366 48.28 35.4369 48.28C35.4372 48.28 35.4374 48.28 35.4377 48.28C35.4379 48.28 35.4382 48.28 35.4385 48.28C35.4387 48.28 35.439 48.28 35.4392 48.28C35.4395 48.28 35.4397 48.28 35.44 48.28C35.4403 48.28 35.4405 48.28 35.4408 48.28C35.441 48.28 35.4413 48.28 35.4416 48.28C35.4418 48.28 35.4421 48.28 35.4423 48.28C35.4426 48.28 35.4429 48.28 35.4431 48.28C35.4434 48.28 35.4436 48.28 35.4439 48.28C35.4441 48.28 35.4444 48.28 35.4447 48.28C35.4449 48.28 35.4452 48.28 35.4454 48.28C35.4457 48.28 35.446 48.28 35.4462 48.28C35.4465 48.28 35.4467 48.28 35.447 48.28C35.4472 48.28 35.4475 48.28 35.4478 48.28C35.448 48.28 35.4483 48.28 35.4485 48.28C35.4488 48.28 35.4491 48.28 35.4493 48.28C35.4496 48.28 35.4498 48.28 35.4501 48.28C35.4503 48.28 35.4506 48.28 35.4509 48.28C35.4511 48.28 35.4514 48.28 35.4516 48.28C35.4519 48.28 35.4521 48.28 35.4524 48.28C35.4527 48.28 35.4529 48.28 35.4532 48.28C35.4534 48.28 35.4537 48.28 35.4539 48.28C35.4542 48.28 35.4545 48.28 35.4547 48.28C35.455 48.28 35.4552 48.28 35.4555 48.28C35.4557 48.28 35.456 48.28 35.4563 48.28C35.4565 48.28 35.4568 48.28 35.457 48.28C35.4573 48.28 35.4575 48.28 35.4578 48.28C35.4581 48.28 35.4583 48.28 35.4586 48.28C35.4588 48.28 35.4591 48.28 35.4593 48.28C35.4596 48.28 35.4599 48.28 35.4601 48.28C35.4604 48.28 35.4606 48.28 35.4609 48.28C35.4611 48.28 35.4614 48.28 35.4617 48.28C35.4619 48.28 35.4622 48.28 35.4624 48.28C35.4627 48.28 35.4629 48.28 35.4632 48.28C35.4634 48.28 35.4637 48.28 35.464 48.28C35.4642 48.28 35.4645 48.28 35.4647 48.28C35.465 48.28 35.4652 48.28 35.4655 48.28C35.4658 48.28 35.466 48.28 35.4663 48.28C35.4665 48.28 35.4668 48.28 35.467 48.28C35.4673 48.28 35.4675 48.28 35.4678 48.28C35.4681 48.28 35.4683 48.28 35.4686 48.28C35.4688 48.28 35.4691 48.28 35.4693 48.28C35.4696 48.28 35.4698 48.28 35.4701 48.28C35.4704 48.28 35.4706 48.28 35.4709 48.28C35.4711 48.28 35.4714 48.28 35.4716 48.28C35.4719 48.28 35.4721 48.28 35.4724 48.28C35.4727 48.28 35.4729 48.28 35.4732 48.28C35.4734 48.28 35.4737 48.28 35.4739 48.28C35.4742 48.28 35.4744 48.28 35.4747 48.28C35.4749 48.28 35.4752 48.28 35.4755 48.28C35.4757 48.28 35.476 48.28 35.4762 48.28C35.4765 48.28 35.4767 48.28 35.477 48.28C35.4772 48.28 35.4775 48.28 35.4777 48.28C35.478 48.28 35.4783 48.28 35.4785 48.28C35.4788 48.28 35.479 48.28 35.4793 48.28C35.4795 48.28 35.4798 48.28 35.48 48.28C35.4803 48.28 35.4805 48.28 35.4808 48.28C35.4811 48.28 35.4813 48.28 35.4816 48.28C35.4818 48.28 35.4821 48.28 35.4823 48.28C35.4826 48.28 35.4828 48.28 35.4831 48.28C35.4833 48.28 35.4836 48.28 35.4839 48.28C35.4841 48.28 35.4844 48.28 35.4846 48.28C35.4849 48.28 35.4851 48.28 35.4854 48.28C35.4856 48.28 35.4859 48.28 35.4861 48.28C35.4864 48.28 35.4866 48.28 35.4869 48.28C35.4871 48.28 35.4874 48.28 35.4877 48.28C35.4879 48.28 35.4882 48.28 35.4884 48.28C35.4887 48.28 35.4889 48.28 35.4892 48.28C35.4894 48.28 35.4897 48.28 35.4899 48.28C35.4902 48.28 35.4904 48.28 35.4907 48.28C35.4909 48.28 35.4912 48.28 35.4915 48.28C35.4917 48.28 35.492 48.28 35.4922 48.28C35.4925 48.28 35.4927 48.28 35.493 48.28C35.4932 48.28 35.4935 48.28 35.4937 48.28C35.494 48.28 35.4942 48.28 35.4945 48.28C35.4947 48.28 35.495 48.28 35.4952 48.28C35.4955 48.28 35.4958 48.28 35.496 48.28C35.4963 48.28 35.4965 48.28 35.4968 48.28C35.497 48.28 35.4973 48.28 35.4975 48.28C35.4978 48.28 35.498 48.28 35.4983 48.28C35.4985 48.28 35.4988 48.28 35.499 48.28C35.4993 48.28 35.4995 48.28 35.4998 48.28C35.5 48.28 35.5003 48.28 35.5005 48.28C35.5008 48.28 35.501 48.28 35.5013 48.28C35.5015 48.28 35.5018 48.28 35.5021 48.28C35.5023 48.28 35.5026 48.28 35.5028 48.28C35.5031 48.28 35.5033 48.28 35.5036 48.28C35.5038 48.28 35.5041 48.28 35.5043 48.28C35.5046 48.28 35.5048 48.28 35.5051 48.28C35.5053 48.28 35.5056 48.28 35.5058 48.28C35.5061 48.28 35.5063 48.28 35.5066 48.28C35.5068 48.28 35.5071 48.28 35.5073 48.28C35.5076 48.28 35.5078 48.28 35.5081 48.28C35.5083 48.28 35.5086 48.28 35.5088 48.28C35.5091 48.28 35.5093 48.28 35.5096 48.28C35.5098 48.28 35.5101 48.28 35.5103 48.28C35.5106 48.28 35.5108 48.28 35.5111 48.28C35.5113 48.28 35.5116 48.28 35.5118 48.28C35.5121 48.28 35.5123 48.28 35.5126 48.28C35.5128 48.28 35.5131 48.28 35.5133 48.28C35.5136 48.28 35.5139 48.28 35.5141 48.28C35.5144 48.28 35.5146 48.28 35.5149 48.28C35.5151 48.28 35.5154 48.28 35.5156 48.28C35.5159 48.28 35.5161 48.28 35.5163 48.28C35.5166 48.28 35.5168 48.28 35.5171 48.28C35.5173 48.28 35.5176 48.28 35.5178 48.28C35.5181 48.28 35.5183 48.28 35.5186 48.28C35.5188 48.28 35.5191 48.28 35.5193 48.28C35.5196 48.28 35.5198 48.28 35.5201 48.28C35.5203 48.28 35.5206 48.28 35.5208 48.28C35.5211 48.28 35.5213 48.28 35.5216 48.28C35.5218 48.28 35.5221 48.28 35.5223 48.28C35.5226 48.28 35.5228 48.28 35.5231 48.28C35.5233 48.28 35.5236 48.28 35.5238 48.28C35.5241 48.28 35.5243 48.28 35.5246 48.28C35.5248 48.28 35.5251 48.28 35.5253 48.28C35.5256 48.28 35.5258 48.28 35.5261 48.28C35.5263 48.28 35.5266 48.28 35.5268 48.28C35.5271 48.28 35.5273 48.28 35.5276 48.28C35.5278 48.28 35.5281 48.28 35.5283 48.28C35.5286 48.28 35.5288 48.28 35.5291 48.28C35.5293 48.28 35.5296 48.28 35.5298 48.28C35.5301 48.28 35.5303 48.28 35.5306 48.28C35.5308 48.28 35.5311 48.28 35.5313 48.28C35.5315 48.28 35.5318 48.28 35.532 48.28C35.5323 48.28 35.5325 48.28 35.5328 48.28C35.533 48.28 35.5333 48.28 35.5335 48.28C35.5338 48.28 35.534 48.28 35.5343 48.28C35.5345 48.28 35.5348 48.28 35.535 48.28C35.5353 48.28 35.5355 48.28 35.5358 48.28C35.536 48.28 35.5363 48.28 35.5365 48.28C35.5368 48.28 35.537 48.28 35.5373 48.28C35.5375 48.28 35.5377 48.28 35.538 48.28C35.5382 48.28 35.5385 48.28 35.5387 48.28C35.539 48.28 35.5392 48.28 35.5395 48.28C35.5397 48.28 35.54 48.28 35.5402 48.28C35.5405 48.28 35.5407 48.28 35.541 48.28C35.5412 48.28 35.5415 48.28 35.5417 48.28C35.5419 48.28 35.5422 48.28 35.5424 48.28C35.5427 48.28 35.5429 48.28 35.5432 48.28C35.5434 48.28 35.5437 48.28 35.5439 48.28C35.5442 48.28 35.5444 48.28 35.5447 48.28C35.5449 48.28 35.5452 48.28 35.5454 48.28C35.5456 48.28 35.5459 48.28 35.5461 48.28C35.5464 48.28 35.5466 48.28 35.5469 48.28C35.5471 48.28 35.5474 48.28 35.5476 48.28C35.5479 48.28 35.5481 48.28 35.5484 48.28C35.5486 48.28 35.5489 48.28 35.5491 48.28C35.5493 48.28 35.5496 48.28 35.5498 48.28C35.5501 48.28 35.5503 48.28 35.5506 48.28C35.5508 48.28 35.5511 48.28 35.5513 48.28C35.5516 48.28 35.5518 48.28 35.552 48.28C35.5523 48.28 35.5525 48.28 35.5528 48.28C35.553 48.28 35.5533 48.28 35.5535 48.28C35.5538 48.28 35.554 48.28 35.5543 48.28C35.5545 48.28 35.5547 48.28 35.555 48.28C35.5552 48.28 35.5555 48.28 35.5557 48.28C35.556 48.28 35.5562 48.28 35.5565 48.28C35.5567 48.28 35.557 48.28 35.5572 48.28C35.5574 48.28 35.5577 48.28 35.5579 48.28C35.5582 48.28 35.5584 48.28 35.5587 48.28C35.5589 48.28 35.5592 48.28 35.5594 48.28C35.5597 48.28 35.5599 48.28 35.5601 48.28C35.5604 48.28 35.5606 48.28 35.5609 48.28C35.5611 48.28 35.5614 48.28 35.5616 48.28C35.5619 48.28 35.5621 48.28 35.5623 48.28C35.5626 48.28 35.5628 48.28 35.5631 48.28C35.5633 48.28 35.5636 48.28 35.5638 48.28C35.5641 48.28 35.5643 48.28 35.5645 48.28C35.5648 48.28 35.565 48.28 35.5653 48.28C35.5655 48.28 35.5658 48.28 35.566 48.28C35.5662 48.28 35.5665 48.28 35.5667 48.28C35.567 48.28 35.5672 48.28 35.5675 48.28C35.5677 48.28 35.568 48.28 35.5682 48.28C35.5684 48.28 35.5687 48.28 35.5689 48.28C35.5692 48.28 35.5694 48.28 35.5697 48.28C35.5699 48.28 35.5702 48.28 35.5704 48.28C35.5706 48.28 35.5709 48.28 35.5711 48.28C35.5714 48.28 35.5716 48.28 35.5719 48.28C35.5721 48.28 35.5723 48.28 35.5726 48.28C35.5728 48.28 35.5731 48.28 35.5733 48.28C35.5736 48.28 35.5738 48.28 35.574 48.28C35.5743 48.28 35.5745 48.28 35.5748 48.28C35.575 48.28 35.5753 48.28 35.5755 48.28C35.5757 48.28 35.576 48.28 35.5762 48.28C35.5765 48.28 35.5767 48.28 35.577 48.28C35.5772 48.28 35.5774 48.28 35.5777 48.28C35.5779 48.28 35.5782 48.28 35.5784 48.28C35.5787 48.28 35.5789 48.28 35.5791 48.28C35.5794 48.28 35.5796 48.28 35.5799 48.28C35.5801 48.28 35.5804 48.28 35.5806 48.28C35.5808 48.28 35.5811 48.28 35.5813 48.28C35.5816 48.28 35.5818 48.28 35.5821 48.28C35.5823 48.28 35.5825 48.28 35.5828 48.28C35.583 48.28 35.5833 48.28 35.5835 48.28C35.5837 48.28 35.584 48.28 35.5842 48.28C35.5845 48.28 35.5847 48.28 35.585 48.28C35.5852 48.28 35.5854 48.28 35.5857 48.28C35.5859 48.28 35.5862 48.28 35.5864 48.28C35.5866 48.28 35.5869 48.28 35.5871 48.28C35.5874 48.28 35.5876 48.28 35.5879 48.28C35.5881 48.28 35.5883 48.28 35.5886 48.28C35.5888 48.28 35.5891 48.28 35.5893 48.28C35.5895 48.28 35.5898 48.28 35.59 48.28C35.5903 48.28 35.5905 48.28 35.5907 48.28C35.591 48.28 35.5912 48.28 35.5915 48.28C35.5917 48.28 35.592 48.28 35.5922 48.28C35.5924 48.28 35.5927 48.28 35.5929 48.28C35.5932 48.28 35.5934 48.28 35.5936 48.28C35.5939 48.28 35.5941 48.28 35.5944 48.28C35.5946 48.28 35.5948 48.28 35.5951 48.28C35.5953 48.28 35.5956 48.28 35.5958 48.28C35.596 48.28 35.5963 48.28 35.5965 48.28C35.5968 48.28 35.597 48.28 35.5972 48.28C35.5975 48.28 35.5977 48.28 35.598 48.28C35.5982 48.28 35.5984 48.28 35.5987 48.28C35.5989 48.28 35.5992 48.28 35.5994 48.28C35.5996 48.28 35.5999 48.28 35.6001 48.28C35.6004 48.28 35.6006 48.28 35.6008 48.28C35.6011 48.28 35.6013 48.28 35.6016 48.28C35.6018 48.28 35.602 48.28 35.6023 48.28C35.6025 48.28 35.6028 48.28 35.603 48.28C35.6032 48.28 35.6035 48.28 35.6037 48.28C35.604 48.28 35.6042 48.28 35.6044 48.28C35.6047 48.28 35.6049 48.28 35.6052 48.28C35.6054 48.28 35.6056 48.28 35.6059 48.28C35.6061 48.28 35.6064 48.28 35.6066 48.28C35.6068 48.28 35.6071 48.28 35.6073 48.28C35.6075 48.28 35.6078 48.28 35.608 48.28C35.6083 48.28 35.6085 48.28 35.6087 48.28C35.609 48.28 35.6092 48.28 35.6095 48.28C35.6097 48.28 35.6099 48.28 35.6102 48.28C35.6104 48.28 35.6107 48.28 35.6109 48.28C35.6111 48.28 35.6114 48.28 35.6116 48.28C35.6118 48.28 35.6121 48.28 35.6123 48.28C35.6126 48.28 35.6128 48.28 35.613 48.28C35.6133 48.28 35.6135 48.28 35.6138 48.28C35.614 48.28 35.6142 48.28 35.6145 48.28C35.6147 48.28 35.6149 48.28 35.6152 48.28C35.6154 48.28 35.6157 48.28 35.6159 48.28C35.6161 48.28 35.6164 48.28 35.6166 48.28C35.6168 48.28 35.6171 48.28 35.6173 48.28C35.6176 48.28 35.6178 48.28 35.618 48.28C35.6183 48.28 35.6185 48.28 35.6187 48.28C35.619 48.28 35.6192 48.28 35.6195 48.28C35.6197 48.28 35.6199 48.28 35.6202 48.28C35.6204 48.28 35.6206 48.28 35.6209 48.28C35.6211 48.28 35.6214 48.28 35.6216 48.28C35.6218 48.28 35.6221 48.28 35.6223 48.28C35.6225 48.28 35.6228 48.28 35.623 48.28C35.6233 48.28 35.6235 48.28 35.6237 48.28C35.624 48.28 35.6242 48.28 35.6244 48.28C35.6247 48.28 35.6249 48.28 35.6251 48.28C35.6254 48.28 35.6256 48.28 35.6259 48.28C35.6261 48.28 35.6263 48.28 35.6266 48.28C35.6268 48.28 35.627 48.28 35.6273 48.28C35.6275 48.28 35.6278 48.28 35.628 48.28C35.6282 48.28 35.6285 48.28 35.6287 48.28C35.6289 48.28 35.6292 48.28 35.6294 48.28C35.6296 48.28 35.6299 48.28 35.6301 48.28C35.6304 48.28 35.6306 48.28 35.6308 48.28C35.6311 48.28 35.6313 48.28 35.6315 48.28C35.6318 48.28 35.632 48.28 35.6322 48.28C35.6325 48.28 35.6327 48.28 35.6329 48.28C35.6332 48.28 35.6334 48.28 35.6337 48.28C35.6339 48.28 35.6341 48.28 35.6344 48.28C35.6346 48.28 35.6348 48.28 35.6351 48.28C35.6353 48.28 35.6355 48.28 35.6358 48.28C35.636 48.28 35.6362 48.28 35.6365 48.28C35.6367 48.28 35.637 48.28 35.6372 48.28C35.6374 48.28 35.6377 48.28 35.6379 48.28C35.6381 48.28 35.6384 48.28 35.6386 48.28C35.6388 48.28 35.6391 48.28 35.6393 48.28C35.6395 48.28 35.6398 48.28 35.64 48.28C35.6402 48.28 35.6405 48.28 35.6407 48.28C35.6409 48.28 35.6412 48.28 35.6414 48.28C35.6417 48.28 35.6419 48.28 35.6421 48.28C35.6424 48.28 35.6426 48.28 35.6428 48.28C35.6431 48.28 35.6433 48.28 35.6435 48.28C35.6438 48.28 35.644 48.28 35.6442 48.28C35.6445 48.28 35.6447 48.28 35.6449 48.28C35.6452 48.28 35.6454 48.28 35.6456 48.28C35.6459 48.28 35.6461 48.28 35.6463 48.28C35.6466 48.28 35.6468 48.28 35.647 48.28C35.6473 48.28 35.6475 48.28 35.6477 48.28C35.648 48.28 35.6482 48.28 35.6484 48.28C35.6487 48.28 35.6489 48.28 35.6491 48.28C35.6494 48.28 35.6496 48.28 35.6498 48.28C35.6501 48.28 35.6503 48.28 35.6505 48.28C35.6508 48.28 35.651 48.28 35.6512 48.28C35.6515 48.28 35.6517 48.28 35.6519 48.28C35.6522 48.28 35.6524 48.28 35.6526 48.28C35.6529 48.28 35.6531 48.28 35.6533 48.28C35.6536 48.28 35.6538 48.28 35.654 48.28C35.6543 48.28 35.6545 48.28 35.6547 48.28C35.655 48.28 35.6552 48.28 35.6554 48.28C35.6557 48.28 35.6559 48.28 35.6561 48.28C35.6564 48.28 35.6566 48.28 35.6568 48.28C35.6571 48.28 35.6573 48.28 35.6575 48.28C35.6578 48.28 35.658 48.28 35.6582 48.28C35.6585 48.28 35.6587 48.28 35.6589 48.28C35.6592 48.28 35.6594 48.28 35.6596 48.28C35.6599 48.28 35.6601 48.28 35.6603 48.28C35.6606 48.28 35.6608 48.28 35.661 48.28C35.6613 48.28 35.6615 48.28 35.6617 48.28C35.662 48.28 35.6622 48.28 35.6624 48.28C35.6627 48.28 35.6629 48.28 35.6631 48.28C35.6633 48.28 35.6636 48.28 35.6638 48.28C35.664 48.28 35.6643 48.28 35.6645 48.28C35.6647 48.28 35.665 48.28 35.6652 48.28C35.6654 48.28 35.6657 48.28 35.6659 48.28C35.6661 48.28 35.6664 48.28 35.6666 48.28C35.6668 48.28 35.6671 48.28 35.6673 48.28C35.6675 48.28 35.6678 48.28 35.668 48.28C35.6682 48.28 35.6684 48.28 35.6687 48.28C35.6689 48.28 35.6691 48.28 35.6694 48.28C35.6696 48.28 35.6698 48.28 35.6701 48.28C35.6703 48.28 35.6705 48.28 35.6708 48.28C35.671 48.28 35.6712 48.28 35.6714 48.28C35.6717 48.28 35.6719 48.28 35.6721 48.28C35.6724 48.28 35.6726 48.28 35.6728 48.28C35.6731 48.28 35.6733 48.28 35.6735 48.28C35.6738 48.28 35.674 48.28 35.6742 48.28C35.6744 48.28 35.6747 48.28 35.6749 48.28C35.6751 48.28 35.6754 48.28 35.6756 48.28C35.6758 48.28 35.6761 48.28 35.6763 48.28C35.6765 48.28 35.6768 48.28 35.677 48.28C35.6772 48.28 35.6774 48.28 35.6777 48.28C35.6779 48.28 35.6781 48.28 35.6784 48.28C35.6786 48.28 35.6788 48.28 35.6791 48.28C35.6793 48.28 35.6795 48.28 35.6797 48.28C35.68 48.28 35.6802 48.28 35.6804 48.28C35.6807 48.28 35.6809 48.28 35.6811 48.28C35.6813 48.28 35.6816 48.28 35.6818 48.28C35.682 48.28 35.6823 48.28 35.6825 48.28C35.6827 48.28 35.683 48.28 35.6832 48.28C35.6834 48.28 35.6836 48.28 35.6839 48.28C35.6841 48.28 35.6843 48.28 35.6846 48.28C35.6848 48.28 35.685 48.28 35.6852 48.28C35.6855 48.28 35.6857 48.28 35.6859 48.28C35.6862 48.28 35.6864 48.28 35.6866 48.28C35.6869 48.28 35.6871 48.28 35.6873 48.28C35.6875 48.28 35.6878 48.28 35.688 48.28C35.6882 48.28 35.6885 48.28 35.6887 48.28C35.6889 48.28 35.6891 48.28 35.6894 48.28C35.6896 48.28 35.6898 48.28 35.6901 48.28C35.6903 48.28 35.6905 48.28 35.6907 48.28C35.691 48.28 35.6912 48.28 35.6914 48.28C35.6917 48.28 35.6919 48.28 35.6921 48.28C35.6923 48.28 35.6926 48.28 35.6928 48.28C35.693 48.28 35.6932 48.28 35.6935 48.28C35.6937 48.28 35.6939 48.28 35.6942 48.28C35.6944 48.28 35.6946 48.28 35.6948 48.28V46.28ZM35.1454 46.2936C35.0349 46.312 34.9776 46.315 34.9598 46.315V48.315C35.1288 48.315 35.3048 48.2946 35.4742 48.2664L35.1454 46.2936ZM34.9598 46.315C33.8877 46.315 33.2306 46.0915 32.8438 45.7906L31.6159 47.3694C32.4891 48.0485 33.6519 48.315 34.9598 48.315V46.315ZM32.8582 45.8021C32.4655 45.4849 32.3198 45.1552 32.3198 44.76H30.3198C30.3198 45.8115 30.7808 46.6951 31.6015 47.3579L32.8582 45.8021ZM32.3198 44.76C32.3198 44.3581 32.4101 44.0537 32.5581 43.8115L30.8516 42.7686C30.4863 43.3663 30.3198 44.0419 30.3198 44.76H32.3198ZM32.5503 43.824C32.7881 43.4475 33.2138 42.8991 33.8574 42.1635L32.3523 40.8465C31.6892 41.6043 31.1816 42.2458 30.8594 42.756L32.5503 43.824ZM33.8629 42.1571L36.6629 38.9021L35.1467 37.5979L32.3467 40.8529L33.8629 42.1571ZM36.6655 37.6008L31.9755 32.1058L30.4542 33.4042L35.1442 38.8992L36.6655 37.6008Z" fill="white"/>
</g>
<defs>
<filter id="filter0_ii_1890_3819" x="0" y="0" width="85" height="81" filterUnits="userSpaceOnUse" color-interpolation-filters="sRGB">
<feFlood flood-opacity="0" result="BackgroundImageFix"/>
<feBlend mode="normal" in="SourceGraphic" in2="BackgroundImageFix" result="shape"/>
<feColorMatrix in="SourceAlpha" type="matrix" values="0 0 0 0 0 0 0 0 0 0 0 0 0 0 0 0 0 0 127 0" result="hardAlpha"/>
<feOffset dx="6" dy="6"/>
<feGaussianBlur stdDeviation="3"/>
<feComposite in2="hardAlpha" operator="arithmetic" k2="-1" k3="1"/>
<feColorMatrix type="matrix" values="0 0 0 0 0.705882 0 0 0 0 0.427451 0 0 0 0 0 0 0 0 0.5 0"/>
<feBlend mode="normal" in2="shape" result="effect1_innerShadow_1890_3819"/>
<feColorMatrix in="SourceAlpha" type="matrix" values="0 0 0 0 0 0 0 0 0 0 0 0 0 0 0 0 0 0 127 0" result="hardAlpha"/>
<feOffset dx="-6" dy="-6"/>
<feComposite in2="hardAlpha" operator="arithmetic" k2="-1" k3="1"/>
<feColorMatrix type="matrix" values="0 0 0 0 0.705882 0 0 0 0 0.427451 0 0 0 0 0 0 0 0 0.5 0"/>
<feBlend mode="normal" in2="effect1_innerShadow_1890_3819" result="effect2_innerShadow_1890_3819"/>
</filter>
</defs>
</svg>
